<svg width="495" height="88" viewBox="0 0 495 88" fill="none" xmlns="http://www.w3.org/2000/svg">
<path d="M25.452 31.164L19.824 10.08L14.196 31.164H7.728L0 1.008H6.216L11.088 21.462L16.632 1.008H23.142L28.518 21.546L33.432 1.008H39.69L31.92 31.164H25.452Z" fill="#7891FF"/>
<path d="M50.7668 31.542C44.0468 31.542 39.5528 26.88 39.5528 19.866C39.5528 13.188 44.2148 8.316 50.6828 8.316C57.7808 8.316 62.4848 14.07 61.4348 21.378H45.5168C45.8948 25.032 47.6588 27.048 50.6408 27.048C53.2028 27.048 54.9248 25.788 55.5968 23.562H61.3928C60.1328 28.644 56.2268 31.542 50.7668 31.542ZM50.5568 12.6C47.8268 12.6 46.1048 14.364 45.6008 17.682H55.2608C55.0928 14.574 53.3288 12.6 50.5568 12.6Z" fill="#7891FF"/>
<path d="M71.2251 31.164H65.3451V1.008H71.2251V31.164Z" fill="#7891FF"/>
<path d="M85.9103 31.584C79.4423 31.584 74.9903 26.796 74.9903 19.95C74.9903 13.23 79.6103 8.316 85.9103 8.316C91.7483 8.316 96.0743 12.264 96.7883 18.312H90.6563C90.3623 15.33 88.5563 13.482 85.9103 13.482C82.8863 13.482 80.9543 15.96 80.9543 19.95C80.9543 23.982 82.8443 26.418 85.9103 26.418C88.5983 26.418 90.3203 24.654 90.6563 21.588H96.7883C96.1163 27.762 91.9163 31.584 85.9103 31.584Z" fill="#7891FF"/>
<path d="M110.366 31.584C103.856 31.584 98.9845 26.46 98.9845 19.95C98.9845 13.398 103.856 8.316 110.366 8.316C116.876 8.316 121.748 13.398 121.748 19.95C121.748 26.46 116.876 31.584 110.366 31.584ZM110.366 26.418C113.264 26.418 115.742 24.108 115.742 19.95C115.742 15.792 113.264 13.524 110.366 13.524C107.468 13.524 104.99 15.792 104.99 19.95C104.99 24.108 107.468 26.418 110.366 26.418Z" fill="#7891FF"/>
<path d="M131.312 31.164H125.474V8.736H130.85V11.928C132.488 9.66 134.588 8.316 137.57 8.316C140.636 8.316 142.988 9.744 144.122 12.306C145.886 9.828 148.154 8.316 151.514 8.316C156.05 8.316 159.116 11.298 159.116 16.674V31.164H153.32V18.522C153.32 15.372 151.976 13.482 149.414 13.482C147.104 13.482 145.214 15.288 145.214 18.648V31.164H139.418V18.522C139.418 15.372 138.074 13.482 135.512 13.482C133.16 13.482 131.312 15.288 131.312 18.648V31.164Z" fill="#7891FF"/>
<path d="M173.855 31.542C167.135 31.542 162.641 26.88 162.641 19.866C162.641 13.188 167.303 8.316 173.771 8.316C180.869 8.316 185.573 14.07 184.523 21.378H168.605C168.983 25.032 170.747 27.048 173.729 27.048C176.291 27.048 178.013 25.788 178.685 23.562H184.481C183.221 28.644 179.315 31.542 173.855 31.542ZM173.645 12.6C170.915 12.6 169.193 14.364 168.689 17.682H178.349C178.181 14.574 176.417 12.6 173.645 12.6Z" fill="#7891FF"/>
<path d="M211.154 25.494V30.576C209.726 31.29 208.382 31.584 206.66 31.584C202.04 31.584 199.142 28.938 199.142 23.898V13.734H194.606V8.736H199.142V2.1H204.938V8.736H211.364V13.734H204.938V22.554C204.938 25.158 206.114 26.208 208.214 26.208C209.306 26.208 210.314 25.956 211.154 25.494Z" fill="#7891FF"/>
<path d="M224.349 31.584C217.839 31.584 212.967 26.46 212.967 19.95C212.967 13.398 217.839 8.316 224.349 8.316C230.859 8.316 235.731 13.398 235.731 19.95C235.731 26.46 230.859 31.584 224.349 31.584ZM224.349 26.418C227.247 26.418 229.725 24.108 229.725 19.95C229.725 15.792 227.247 13.524 224.349 13.524C221.451 13.524 218.973 15.792 218.973 19.95C218.973 24.108 221.451 26.418 224.349 26.418Z" fill="#7891FF"/>
<path d="M262.22 31.164H255.836V6.762H246.344V1.008H271.754V6.762H262.22V31.164Z" fill="white"/>
<path d="M280.896 18.942V31.164H275.058V1.008H280.896V11.676C282.45 9.618 284.382 8.316 287.322 8.316C291.816 8.316 294.924 11.256 294.924 16.674V31.164H289.128V18.648C289.128 15.33 287.826 13.482 285.18 13.482C282.87 13.482 280.896 15.33 280.896 18.942Z" fill="white"/>
<path d="M309.698 31.542C302.978 31.542 298.484 26.88 298.484 19.866C298.484 13.188 303.146 8.316 309.614 8.316C316.712 8.316 321.416 14.07 320.366 21.378H304.448C304.826 25.032 306.59 27.048 309.572 27.048C312.134 27.048 313.856 25.788 314.528 23.562H320.324C319.064 28.644 315.158 31.542 309.698 31.542ZM309.488 12.6C306.758 12.6 305.036 14.364 304.532 17.682H314.192C314.024 14.574 312.26 12.6 309.488 12.6Z" fill="white"/>
<path d="M356.112 22.302C356.112 27.888 351.996 31.164 345.36 31.164H333.558V1.008H344.898C351.24 1.008 355.146 3.864 355.146 9.03C355.146 11.802 353.592 14.028 350.904 15.414C354.264 16.59 356.112 18.984 356.112 22.302ZM344.394 6.048H339.354V13.062H344.394C347.502 13.062 349.098 11.718 349.098 9.534C349.098 7.392 347.502 6.048 344.394 6.048ZM344.856 18.144H339.354V26.124H344.856C348.3 26.124 350.106 24.612 350.106 22.05C350.106 19.656 348.3 18.144 344.856 18.144Z" fill="white"/>
<path d="M366.085 20.286V31.164H360.247V8.736H365.623V13.062C367.261 10.206 370.747 8.484 374.359 8.484V14.532C369.403 14.154 366.085 15.33 366.085 20.286Z" fill="white"/>
<path d="M384.154 3.528C384.154 5.502 382.558 6.972 380.248 6.972C377.98 6.972 376.384 5.502 376.384 3.528C376.384 1.47 377.98 0 380.248 0C382.558 0 384.154 1.47 384.154 3.528ZM383.23 31.164H377.392V8.736H383.23V31.164Z" fill="white"/>
<path d="M397.959 39.69C391.911 39.69 387.879 36.414 387.627 31.248H393.255C393.507 33.81 395.145 35.154 397.917 35.154C401.151 35.154 402.831 33.432 402.831 30.198V26.922C401.613 29.064 399.303 30.324 396.573 30.324C391.071 30.324 386.955 25.662 386.955 19.32C386.955 12.81 390.819 8.316 396.363 8.316C399.387 8.316 401.655 9.492 403.293 11.802V8.736H408.627V30.114C408.627 36.078 404.595 39.69 397.959 39.69ZM392.793 19.32C392.793 22.974 394.683 25.284 397.707 25.284C400.773 25.284 402.789 22.89 402.789 19.362C402.789 15.708 400.773 13.356 397.707 13.356C394.725 13.356 392.793 15.666 392.793 19.32Z" fill="white"/>
<path d="M419.734 18.942V31.164H413.896V1.008H419.734V11.676C421.288 9.618 423.22 8.316 426.16 8.316C430.654 8.316 433.762 11.256 433.762 16.674V31.164H427.966V18.648C427.966 15.33 426.664 13.482 424.018 13.482C421.708 13.482 419.734 15.33 419.734 18.942Z" fill="white"/>
<path d="M452.572 25.494V30.576C451.144 31.29 449.8 31.584 448.078 31.584C443.458 31.584 440.56 28.938 440.56 23.898V13.734H436.024V8.736H440.56V2.1H446.356V8.736H452.782V13.734H446.356V22.554C446.356 25.158 447.532 26.208 449.632 26.208C450.724 26.208 451.732 25.956 452.572 25.494Z" fill="white"/>
<path d="M465.599 31.542C458.879 31.542 454.385 26.88 454.385 19.866C454.385 13.188 459.047 8.316 465.515 8.316C472.613 8.316 477.317 14.07 476.267 21.378H460.349C460.727 25.032 462.491 27.048 465.473 27.048C468.035 27.048 469.757 25.788 470.429 23.562H476.225C474.965 28.644 471.059 31.542 465.599 31.542ZM465.389 12.6C462.659 12.6 460.937 14.364 460.433 17.682H470.093C469.925 14.574 468.161 12.6 465.389 12.6Z" fill="white"/>
<path d="M486.015 20.286V31.164H480.177V8.736H485.553V13.062C487.191 10.206 490.677 8.484 494.289 8.484V14.532C489.333 14.154 486.015 15.33 486.015 20.286Z" fill="white"/>
<path d="M25.704 77.798C25.704 83.552 21.084 87.584 13.524 87.584C5.922 87.584 1.176 83.51 0.714 77.126H7.182C7.35 80.444 9.492 82.586 13.398 82.586C16.632 82.586 18.942 81.158 18.942 78.722C18.942 76.832 17.472 75.698 14.91 75.194L9.954 74.228C5.376 73.346 1.848 70.868 1.848 65.87C1.848 60.494 6.594 56.63 13.104 56.63C19.866 56.63 24.822 60.578 25.242 66.878H18.774C18.564 63.728 16.38 61.586 13.188 61.586C10.08 61.586 8.316 63.35 8.316 65.45C8.316 67.508 10.206 68.39 12.39 68.81L17.556 69.86C22.848 70.91 25.704 73.346 25.704 77.798Z" fill="white"/>
<path d="M36.6696 59.528C36.6696 61.502 35.0736 62.972 32.7636 62.972C30.4956 62.972 28.8996 61.502 28.8996 59.528C28.8996 57.47 30.4956 56 32.7636 56C35.0736 56 36.6696 57.47 36.6696 59.528ZM35.7456 87.164H29.9076V64.736H35.7456V87.164Z" fill="white"/>
<path d="M39.4708 75.95C39.4708 69.314 43.3768 64.316 49.4248 64.316C52.1128 64.316 54.3808 65.492 56.0608 67.634V57.008H61.8568V87.164H56.5228V83.93C54.7588 86.282 52.3228 87.584 49.4248 87.584C43.3768 87.584 39.4708 82.502 39.4708 75.95ZM45.4768 75.95C45.4768 80.15 47.8708 82.376 50.7268 82.376C53.6248 82.376 56.0188 80.108 56.0188 75.866C56.0188 71.624 53.5828 69.482 50.7268 69.482C47.8708 69.482 45.4768 71.666 45.4768 75.95Z" fill="white"/>
<path d="M76.8118 87.542C70.0918 87.542 65.5978 82.88 65.5978 75.866C65.5978 69.188 70.2598 64.316 76.7278 64.316C83.8258 64.316 88.5298 70.07 87.4798 77.378H71.5618C71.9398 81.032 73.7038 83.048 76.6858 83.048C79.2478 83.048 80.9698 81.788 81.6418 79.562H87.4378C86.1778 84.644 82.2718 87.542 76.8118 87.542ZM76.6018 68.6C73.8718 68.6 72.1498 70.364 71.6458 73.682H81.3058C81.1378 70.574 79.3738 68.6 76.6018 68.6Z" fill="white"/>
<path d="M110.079 87.584C103.569 87.584 98.6974 82.46 98.6974 75.95C98.6974 69.398 103.569 64.316 110.079 64.316C116.589 64.316 121.461 69.398 121.461 75.95C121.461 82.46 116.589 87.584 110.079 87.584ZM110.079 82.418C112.977 82.418 115.455 80.108 115.455 75.95C115.455 71.792 112.977 69.524 110.079 69.524C107.181 69.524 104.703 71.792 104.703 75.95C104.703 80.108 107.181 82.418 110.079 82.418Z" fill="white"/>
<path d="M132.51 87.164H126.714V69.734H122.178V64.736H126.714V63.518C126.714 59.066 129.108 56.546 133.77 56.546C135.198 56.546 136.416 56.798 137.382 57.218V61.838C136.752 61.586 135.912 61.46 135.156 61.46C133.56 61.46 132.51 62.09 132.51 63.644V64.736H138.348V69.734H132.51V87.164Z" fill="white"/>
<path d="M173.182 78.302C173.182 83.888 169.066 87.164 162.43 87.164H150.628V57.008H161.968C168.31 57.008 172.216 59.864 172.216 65.03C172.216 67.802 170.662 70.028 167.974 71.414C171.334 72.59 173.182 74.984 173.182 78.302ZM161.464 62.048H156.424V69.062H161.464C164.572 69.062 166.168 67.718 166.168 65.534C166.168 63.392 164.572 62.048 161.464 62.048ZM161.926 74.144H156.424V82.124H161.926C165.37 82.124 167.176 80.612 167.176 78.05C167.176 75.656 165.37 74.144 161.926 74.144Z" fill="white"/>
<path d="M183.198 87.164H177.318V57.008H183.198V87.164Z" fill="white"/>
<path d="M202.083 77.714V64.736H207.879V87.164H202.545V84.224C201.327 86.198 198.849 87.584 195.993 87.584C191.499 87.584 188.223 84.854 188.223 79.016V64.736H194.061V77.882C194.061 81.032 195.615 82.418 197.967 82.418C200.067 82.418 202.083 80.738 202.083 77.714Z" fill="white"/>
<path d="M222.868 87.542C216.148 87.542 211.654 82.88 211.654 75.866C211.654 69.188 216.316 64.316 222.784 64.316C229.882 64.316 234.586 70.07 233.536 77.378H217.618C217.996 81.032 219.76 83.048 222.742 83.048C225.304 83.048 227.026 81.788 227.698 79.562H233.494C232.234 84.644 228.328 87.542 222.868 87.542ZM222.658 68.6C219.928 68.6 218.206 70.364 217.702 73.682H227.362C227.194 70.574 225.43 68.6 222.658 68.6Z" fill="white"/>
<path d="M257.858 77.336H253.112V87.164H246.728V57.008H257.858C265.208 57.008 269.786 60.494 269.786 67.046C269.786 73.598 265.208 77.336 257.858 77.336ZM257.816 62.384H253.112V71.96H257.816C261.428 71.96 263.444 70.07 263.444 67.088C263.444 64.106 261.428 62.384 257.816 62.384Z" fill="white"/>
<path d="M283.124 87.584C276.614 87.584 271.742 82.46 271.742 75.95C271.742 69.398 276.614 64.316 283.124 64.316C289.634 64.316 294.506 69.398 294.506 75.95C294.506 82.46 289.634 87.584 283.124 87.584ZM283.124 82.418C286.022 82.418 288.5 80.108 288.5 75.95C288.5 71.792 286.022 69.524 283.124 69.524C280.226 69.524 277.748 71.792 277.748 75.95C277.748 80.108 280.226 82.418 283.124 82.418Z" fill="white"/>
<path d="M296.762 75.95C296.762 69.314 300.668 64.316 306.716 64.316C309.404 64.316 311.672 65.492 313.352 67.634V57.008H319.148V87.164H313.814V83.93C312.05 86.282 309.614 87.584 306.716 87.584C300.668 87.584 296.762 82.502 296.762 75.95ZM302.768 75.95C302.768 80.15 305.162 82.376 308.018 82.376C310.916 82.376 313.31 80.108 313.31 75.866C313.31 71.624 310.874 69.482 308.018 69.482C305.162 69.482 302.768 71.666 302.768 75.95Z" fill="white"/>
<path d="M333.809 87.584C327.341 87.584 322.889 82.796 322.889 75.95C322.889 69.23 327.509 64.316 333.809 64.316C339.647 64.316 343.973 68.264 344.687 74.312H338.555C338.261 71.33 336.455 69.482 333.809 69.482C330.785 69.482 328.853 71.96 328.853 75.95C328.853 79.982 330.743 82.418 333.809 82.418C336.497 82.418 338.219 80.654 338.555 77.588H344.687C344.015 83.762 339.815 87.584 333.809 87.584Z" fill="white"/>
<path d="M361.791 87.164V84.392C360.321 86.492 358.095 87.584 355.029 87.584C350.367 87.584 347.259 84.854 347.259 80.654C347.259 76.286 350.787 73.934 357.339 73.934C358.599 73.934 359.691 74.018 361.077 74.186V72.842C361.077 70.322 359.649 68.852 357.213 68.852C354.693 68.852 353.181 70.322 352.971 72.842H347.721C348.057 67.676 351.795 64.316 357.213 64.316C363.093 64.316 366.537 67.55 366.537 73.052V87.164H361.791ZM352.761 80.486C352.761 82.376 354.105 83.552 356.289 83.552C359.271 83.552 361.077 81.914 361.077 79.31V77.714C359.691 77.504 358.725 77.42 357.717 77.42C354.399 77.42 352.761 78.47 352.761 80.486Z" fill="white"/>
<path d="M390.51 79.982C390.51 84.686 386.94 87.584 380.556 87.584C374.172 87.584 370.602 84.518 370.14 79.52H375.726C375.768 81.83 377.742 83.3 380.64 83.3C382.908 83.3 384.63 82.586 384.63 80.99C384.63 79.562 383.706 78.974 381.564 78.554L377.532 77.798C373.5 77.084 371.064 74.858 371.064 71.372C371.064 67.214 374.634 64.316 380.22 64.316C385.848 64.316 389.712 67.298 390.132 72.128H384.546C384.336 69.944 382.698 68.6 380.22 68.6C378.078 68.6 376.65 69.398 376.65 70.826C376.65 72.17 377.574 72.716 379.59 73.094L383.916 73.892C388.284 74.732 390.51 76.748 390.51 79.982Z" fill="white"/>
<path d="M407.988 81.494V86.576C406.56 87.29 405.216 87.584 403.494 87.584C398.874 87.584 395.976 84.938 395.976 79.898V69.734H391.44V64.736H395.976V58.1H401.772V64.736H408.198V69.734H401.772V78.554C401.772 81.158 402.948 82.208 405.048 82.208C406.14 82.208 407.148 81.956 407.988 81.494Z" fill="white"/>
</svg>
