<svg width="1161" height="200" viewBox="0 0 1161 200" fill="none" xmlns="http://www.w3.org/2000/svg">
<path fill-rule="evenodd" clip-rule="evenodd" d="M196.067 173.333C194.133 178.267 189.667 185.2 183.267 190.133C179.6 192.933 175.2 195.667 169.2 197.467C162.8 199.4 154.867 200 145 200H55C45.1333 200 37.2667 199.333 30.8 197.467C24.8 195.667 20.4 193 16.7333 190.133C10.4 185.267 5.86667 178.267 3.93333 173.333C0.0666666 163.4 0 152.133 0 145V55C0 47.8667 0.0666666 36.6 3.93333 26.6667C5.86667 21.7333 10.3333 14.8 16.7333 9.86667C20.4 7.06667 24.8 4.33333 30.8 2.53333C37.2667 0.666667 45.1333 0 55 0H145C154.867 0 162.733 0.666667 169.2 2.53333C175.2 4.33333 179.6 7 183.267 9.86667C189.6 14.7333 194.133 21.7333 196.067 26.6667C200 36.6 200 47.9333 200 55V145C200 152.133 199.933 163.4 196.067 173.333Z" fill="#C2C2C2"/>
<path d="M117.133 120.733C116.867 118.333 116.067 116.6 114.467 115C111.467 111.867 106.2 109.8 100 109.8C93.8 109.8 88.5333 111.8 85.5333 115C84 116.667 83.1334 118.333 82.8667 120.733C82.3334 125.4 82.6667 129.4 83.2 135.867C83.7334 142 84.7333 150.2 86 158.467C86.9333 164.4 87.6667 167.6 88.3334 169.867C89.4667 173.6 93.5333 176.8 100 176.8C106.467 176.8 110.6 173.533 111.667 169.867C112.333 167.6 113.067 164.4 114 158.467C115.267 150.133 116.267 142 116.8 135.867C117.4 129.4 117.667 125.4 117.133 120.733Z" fill="white"/>
<path d="M116.4 86.7333C116.4 95.8 109.067 103.133 100 103.133C90.9333 103.133 83.6 95.8 83.6 86.7333C83.6 77.6667 90.9333 70.3333 100 70.3333C109.067 70.3333 116.4 77.7333 116.4 86.7333Z" fill="white"/>
<path d="M99.8 22.1333C61.5333 22.2667 30.2 53.3333 29.6667 91.6C29.2667 122.6 49.0667 149.133 76.7333 158.867C77.4 159.133 78.0667 158.533 78 157.867C77.6667 155.467 77.2667 153.067 77 150.667C76.8667 149.8 76.3333 149.133 75.6 148.733C53.7333 139.2 38.4667 117.267 38.7333 91.8667C39.0667 58.5333 66.2667 31.4 99.5333 31.1333C133.6 30.8667 161.4 58.4667 161.4 92.4667C161.4 117.6 146.2 139.2 124.533 148.733C123.733 149.067 123.2 149.8 123.133 150.667C122.8 153.067 122.467 155.467 122.133 157.867C122 158.6 122.733 159.133 123.4 158.867C150.8 149.267 170.467 123.133 170.467 92.4667C170.333 53.6667 138.667 22.0667 99.8 22.1333Z" fill="white"/>
<path d="M98.2 45.4667C73.2667 46.4 53.2667 67 52.9333 91.9333C52.7333 108.333 60.9333 122.867 73.5333 131.467C74.1333 131.867 75 131.4 75 130.667C74.8 127.8 74.8 125.267 74.9333 122.6C75 121.733 74.6667 120.933 74 120.333C66.3333 113.133 61.6667 102.867 61.9333 91.5333C62.4667 71.5333 78.5333 55.2667 98.5333 54.4667C120.267 53.6 138.133 71.0667 138.133 92.5333C138.133 103.467 133.467 113.333 126.067 120.333C125.467 120.933 125.133 121.733 125.133 122.6C125.267 125.2 125.2 127.733 125.067 130.6C125 131.333 125.867 131.867 126.533 131.4C138.933 122.933 147.133 108.6 147.133 92.4667C147.2 65.9333 125 44.4 98.2 45.4667Z" fill="white"/>
<path d="M250.5 140H241.591L275.455 46.9091H284.545L318.409 140H309.5L280.318 57.9545H279.682L250.5 140ZM256.909 104.318H303.091V111.955H256.909V104.318Z" fill="#C2C2C2"/>
<path d="M332.682 166.182V70.1818H340.545V83.5H341.5C342.47 81.4091 343.803 79.2727 345.5 77.0909C347.197 74.8788 349.439 73.0152 352.227 71.5C355.045 69.9848 358.591 69.2273 362.864 69.2273C368.621 69.2273 373.652 70.7424 377.955 73.7727C382.288 76.7727 385.652 80.9848 388.045 86.4091C390.47 91.803 391.682 98.0909 391.682 105.273C391.682 112.485 390.47 118.803 388.045 124.227C385.652 129.652 382.288 133.879 377.955 136.909C373.652 139.939 368.652 141.455 362.955 141.455C358.742 141.455 355.212 140.697 352.364 139.182C349.545 137.667 347.258 135.803 345.5 133.591C343.773 131.348 342.439 129.167 341.5 127.045H340.773V166.182H332.682ZM340.682 105.136C340.682 110.773 341.515 115.773 343.182 120.136C344.879 124.47 347.303 127.879 350.455 130.364C353.636 132.818 357.485 134.045 362 134.045C366.636 134.045 370.545 132.773 373.727 130.227C376.939 127.652 379.379 124.182 381.045 119.818C382.742 115.455 383.591 110.561 383.591 105.136C383.591 99.7727 382.758 94.9394 381.091 90.6364C379.455 86.3333 377.03 82.9242 373.818 80.4091C370.606 77.8636 366.667 76.5909 362 76.5909C357.455 76.5909 353.591 77.8182 350.409 80.2727C347.227 82.697 344.803 86.0606 343.136 90.3636C341.5 94.6364 340.682 99.5606 340.682 105.136Z" fill="#C2C2C2"/>
<path d="M409.432 166.182V70.1818H417.295V83.5H418.25C419.22 81.4091 420.553 79.2727 422.25 77.0909C423.947 74.8788 426.189 73.0152 428.977 71.5C431.795 69.9848 435.341 69.2273 439.614 69.2273C445.371 69.2273 450.402 70.7424 454.705 73.7727C459.038 76.7727 462.402 80.9848 464.795 86.4091C467.22 91.803 468.432 98.0909 468.432 105.273C468.432 112.485 467.22 118.803 464.795 124.227C462.402 129.652 459.038 133.879 454.705 136.909C450.402 139.939 445.402 141.455 439.705 141.455C435.492 141.455 431.962 140.697 429.114 139.182C426.295 137.667 424.008 135.803 422.25 133.591C420.523 131.348 419.189 129.167 418.25 127.045H417.523V166.182H409.432ZM417.432 105.136C417.432 110.773 418.265 115.773 419.932 120.136C421.629 124.47 424.053 127.879 427.205 130.364C430.386 132.818 434.235 134.045 438.75 134.045C443.386 134.045 447.295 132.773 450.477 130.227C453.689 127.652 456.129 124.182 457.795 119.818C459.492 115.455 460.341 110.561 460.341 105.136C460.341 99.7727 459.508 94.9394 457.841 90.6364C456.205 86.3333 453.78 82.9242 450.568 80.4091C447.356 77.8636 443.417 76.5909 438.75 76.5909C434.205 76.5909 430.341 77.8182 427.159 80.2727C423.977 82.697 421.553 86.0606 419.886 90.3636C418.25 94.6364 417.432 99.5606 417.432 105.136Z" fill="#C2C2C2"/>
<path d="M494.273 46.9091V140H486.182V46.9091H494.273Z" fill="#C2C2C2"/>
<path d="M543.909 141.455C537.394 141.455 531.758 139.939 527 136.909C522.242 133.848 518.561 129.621 515.955 124.227C513.379 118.803 512.091 112.561 512.091 105.5C512.091 98.4697 513.379 92.2273 515.955 86.7727C518.561 81.2879 522.152 77 526.727 73.9091C531.333 70.7879 536.652 69.2273 542.682 69.2273C546.47 69.2273 550.121 69.9242 553.636 71.3182C557.152 72.6818 560.303 74.7879 563.091 77.6364C565.909 80.4545 568.136 84.0151 569.773 88.3182C571.409 92.5909 572.227 97.6515 572.227 103.5V107.5H517.682V100.364H563.955C563.955 95.8788 563.045 91.8485 561.227 88.2727C559.439 84.6667 556.939 81.8182 553.727 79.7273C550.545 77.6364 546.864 76.5909 542.682 76.5909C538.258 76.5909 534.364 77.7727 531 80.1364C527.636 82.5 525 85.6212 523.091 89.5C521.212 93.3788 520.258 97.6212 520.227 102.227V106.5C520.227 112.045 521.182 116.894 523.091 121.045C525.03 125.167 527.773 128.364 531.318 130.636C534.864 132.909 539.061 134.045 543.909 134.045C547.212 134.045 550.106 133.53 552.591 132.5C555.106 131.47 557.212 130.091 558.909 128.364C560.636 126.606 561.939 124.682 562.818 122.591L570.5 125.091C569.439 128.03 567.697 130.742 565.273 133.227C562.879 135.712 559.879 137.712 556.273 139.227C552.697 140.712 548.576 141.455 543.909 141.455Z" fill="#C2C2C2"/>
<path d="M627.739 140V46.9091H657.784C664.39 46.9091 669.905 48.1818 674.33 50.7273C678.784 53.2424 682.133 56.6667 684.375 61C686.648 65.3333 687.784 70.2121 687.784 75.6364C687.784 81.0606 686.663 85.9545 684.42 90.3182C682.178 94.6515 678.845 98.0909 674.42 100.636C669.996 103.152 664.496 104.409 657.92 104.409H634.284V96.7727H657.693C662.572 96.7727 666.617 95.8636 669.83 94.0455C673.042 92.197 675.436 89.6818 677.011 86.5C678.617 83.3182 679.42 79.697 679.42 75.6364C679.42 71.5758 678.617 67.9545 677.011 64.7727C675.436 61.5909 673.027 59.0909 669.784 57.2727C666.572 55.4545 662.496 54.5454 657.557 54.5454H636.239V140H627.739Z" fill="#C2C2C2"/>
<path d="M732.443 141.455C726.413 141.455 721.08 139.924 716.443 136.864C711.837 133.803 708.231 129.576 705.625 124.182C703.019 118.758 701.716 112.5 701.716 105.409C701.716 98.2576 703.019 91.9697 705.625 86.5455C708.231 81.0909 711.837 76.8485 716.443 73.8182C721.08 70.7576 726.413 69.2273 732.443 69.2273C738.473 69.2273 743.792 70.7576 748.398 73.8182C753.004 76.8788 756.61 81.1212 759.216 86.5455C761.852 91.9697 763.17 98.2576 763.17 105.409C763.17 112.5 761.867 118.758 759.261 124.182C756.655 129.576 753.034 133.803 748.398 136.864C743.792 139.924 738.473 141.455 732.443 141.455ZM732.443 134.045C737.292 134.045 741.398 132.742 744.761 130.136C748.125 127.53 750.67 124.061 752.398 119.727C754.155 115.394 755.034 110.621 755.034 105.409C755.034 100.197 754.155 95.4091 752.398 91.0455C750.67 86.6818 748.125 83.1818 744.761 80.5455C741.398 77.9091 737.292 76.5909 732.443 76.5909C727.625 76.5909 723.519 77.9091 720.125 80.5455C716.761 83.1818 714.201 86.6818 712.443 91.0455C710.716 95.4091 709.852 100.197 709.852 105.409C709.852 110.621 710.716 115.394 712.443 119.727C714.201 124.061 716.761 127.53 720.125 130.136C723.489 132.742 727.595 134.045 732.443 134.045Z" fill="#C2C2C2"/>
<path d="M806.068 141.455C800.341 141.455 795.326 139.939 791.023 136.909C786.72 133.879 783.356 129.652 780.932 124.227C778.538 118.803 777.341 112.485 777.341 105.273C777.341 98.0909 778.538 91.803 780.932 86.4091C783.356 80.9848 786.735 76.7727 791.068 73.7727C795.402 70.7424 800.447 69.2273 806.205 69.2273C810.447 69.2273 813.977 69.9848 816.795 71.5C819.614 72.9848 821.871 74.8333 823.568 77.0455C825.265 79.2576 826.583 81.4091 827.523 83.5H828.25V46.9091H836.386V140H828.477V127.045H827.523C826.583 129.167 825.25 131.348 823.523 133.591C821.795 135.803 819.508 137.667 816.659 139.182C813.841 140.697 810.311 141.455 806.068 141.455ZM807.023 134.045C811.538 134.045 815.386 132.818 818.568 130.364C821.75 127.879 824.174 124.47 825.841 120.136C827.538 115.773 828.386 110.773 828.386 105.136C828.386 99.5606 827.553 94.6364 825.886 90.3636C824.22 86.0606 821.795 82.697 818.614 80.2727C815.432 77.8182 811.568 76.5909 807.023 76.5909C802.356 76.5909 798.417 77.8636 795.205 80.4091C792.023 82.9242 789.598 86.3333 787.932 90.6364C786.295 94.9394 785.477 99.7727 785.477 105.136C785.477 110.561 786.311 115.455 787.977 119.818C789.644 124.182 792.068 127.652 795.25 130.227C798.462 132.773 802.386 134.045 807.023 134.045Z" fill="#C2C2C2"/>
<path d="M886.705 141.455C880.462 141.455 875.023 139.894 870.386 136.773C865.78 133.652 862.205 129.379 859.659 123.955C857.114 118.53 855.841 112.348 855.841 105.409C855.841 98.4091 857.129 92.1818 859.705 86.7273C862.311 81.2727 865.917 77 870.523 73.9091C875.129 70.7879 880.477 69.2273 886.568 69.2273C891.235 69.2273 895.462 70.1364 899.25 71.9545C903.038 73.7424 906.159 76.2727 908.614 79.5455C911.098 82.7879 912.659 86.5758 913.295 90.9091H905.114C904.265 86.9697 902.22 83.6061 898.977 80.8182C895.765 78 891.674 76.5909 886.705 76.5909C882.25 76.5909 878.311 77.803 874.886 80.2273C871.462 82.6212 868.78 85.9697 866.841 90.2727C864.932 94.5454 863.977 99.5 863.977 105.136C863.977 110.803 864.917 115.818 866.795 120.182C868.674 124.515 871.311 127.909 874.705 130.364C878.129 132.818 882.129 134.045 886.705 134.045C889.795 134.045 892.614 133.47 895.159 132.318C897.735 131.136 899.886 129.47 901.614 127.318C903.371 125.167 904.553 122.606 905.159 119.636H913.341C912.735 123.848 911.235 127.606 908.841 130.909C906.477 134.182 903.402 136.758 899.614 138.636C895.856 140.515 891.553 141.455 886.705 141.455Z" fill="#C2C2C2"/>
<path d="M950.182 141.591C945.97 141.591 942.121 140.773 938.636 139.136C935.152 137.47 932.379 135.076 930.318 131.955C928.258 128.803 927.227 124.985 927.227 120.5C927.227 117.045 927.879 114.136 929.182 111.773C930.485 109.409 932.333 107.47 934.727 105.955C937.121 104.439 939.955 103.242 943.227 102.364C946.5 101.485 950.106 100.803 954.045 100.318C957.955 99.8333 961.258 99.4091 963.955 99.0455C966.682 98.6818 968.758 98.1061 970.182 97.3182C971.606 96.5303 972.318 95.2576 972.318 93.5V91.8636C972.318 87.1061 970.894 83.3636 968.045 80.6364C965.227 77.8788 961.167 76.5 955.864 76.5C950.833 76.5 946.727 77.6061 943.545 79.8182C940.394 82.0303 938.182 84.6364 936.909 87.6364L929.227 84.8636C930.803 81.0454 932.985 78 935.773 75.7273C938.561 73.4242 941.682 71.7727 945.136 70.7727C948.591 69.7424 952.091 69.2273 955.636 69.2273C958.303 69.2273 961.076 69.5758 963.955 70.2727C966.864 70.9697 969.561 72.1818 972.045 73.9091C974.53 75.6061 976.545 77.9849 978.091 81.0455C979.636 84.0758 980.409 87.9242 980.409 92.5909V140H972.318V128.955H971.818C970.848 131.015 969.409 133.015 967.5 134.955C965.591 136.894 963.197 138.485 960.318 139.727C957.439 140.97 954.061 141.591 950.182 141.591ZM951.273 134.182C955.576 134.182 959.303 133.227 962.455 131.318C965.606 129.409 968.03 126.879 969.727 123.727C971.455 120.545 972.318 117.045 972.318 113.227V103.136C971.712 103.712 970.697 104.227 969.273 104.682C967.879 105.136 966.258 105.545 964.409 105.909C962.591 106.242 960.773 106.53 958.955 106.773C957.136 107.015 955.5 107.227 954.045 107.409C950.106 107.894 946.742 108.652 943.955 109.682C941.167 110.712 939.03 112.136 937.545 113.955C936.061 115.742 935.318 118.045 935.318 120.864C935.318 125.106 936.833 128.394 939.864 130.727C942.894 133.03 946.697 134.182 951.273 134.182Z" fill="#C2C2C2"/>
<path d="M1048.84 85.5L1041.43 87.5909C1040.7 85.5 1039.67 83.6061 1038.34 81.9091C1037.01 80.2121 1035.27 78.8636 1033.11 77.8636C1030.99 76.8636 1028.36 76.3636 1025.2 76.3636C1020.48 76.3636 1016.6 77.4848 1013.57 79.7273C1010.54 81.9697 1009.02 84.8636 1009.02 88.4091C1009.02 91.4091 1010.05 93.8485 1012.11 95.7273C1014.2 97.5758 1017.42 99.0455 1021.75 100.136L1032.3 102.727C1038.14 104.152 1042.52 106.409 1045.43 109.5C1048.37 112.591 1049.84 116.47 1049.84 121.136C1049.84 125.076 1048.75 128.576 1046.57 131.636C1044.39 134.697 1041.34 137.106 1037.43 138.864C1033.55 140.591 1029.05 141.455 1023.93 141.455C1017.11 141.455 1011.49 139.924 1007.07 136.864C1002.64 133.773 999.811 129.318 998.568 123.5L1006.34 121.591C1007.34 125.742 1009.3 128.879 1012.2 131C1015.14 133.121 1019.01 134.182 1023.8 134.182C1029.16 134.182 1033.45 132.985 1036.66 130.591C1039.87 128.167 1041.48 125.136 1041.48 121.5C1041.48 118.682 1040.54 116.318 1038.66 114.409C1036.78 112.47 1033.93 111.045 1030.11 110.136L1018.7 107.409C1012.64 105.955 1008.16 103.652 1005.25 100.5C1002.34 97.3485 1000.89 93.4394 1000.89 88.7727C1000.89 84.9242 1001.93 81.5455 1004.02 78.6364C1006.11 75.697 1008.99 73.3939 1012.66 71.7273C1016.33 70.0606 1020.51 69.2273 1025.2 69.2273C1031.6 69.2273 1036.7 70.6818 1040.52 73.5909C1044.37 76.4697 1047.14 80.4394 1048.84 85.5Z" fill="#C2C2C2"/>
<path d="M1095.06 70.1818V77.2273H1061.74V70.1818H1095.06ZM1072.15 53.4545H1080.28V121.773C1080.28 124.682 1080.78 126.97 1081.78 128.636C1082.78 130.273 1084.09 131.439 1085.69 132.136C1087.3 132.803 1089.01 133.136 1090.83 133.136C1091.89 133.136 1092.8 133.076 1093.56 132.955C1094.31 132.803 1094.98 132.652 1095.56 132.5L1097.28 139.818C1096.5 140.121 1095.53 140.394 1094.38 140.636C1093.22 140.909 1091.8 141.045 1090.1 141.045C1087.13 141.045 1084.27 140.394 1081.51 139.091C1078.78 137.788 1076.54 135.848 1074.78 133.273C1073.03 130.697 1072.15 127.5 1072.15 123.682V53.4545Z" fill="#C2C2C2"/>
<path d="M1159.09 85.5L1151.68 87.5909C1150.95 85.5 1149.92 83.6061 1148.59 81.9091C1147.26 80.2121 1145.52 78.8636 1143.36 77.8636C1141.24 76.8636 1138.61 76.3636 1135.45 76.3636C1130.73 76.3636 1126.85 77.4848 1123.82 79.7273C1120.79 81.9697 1119.27 84.8636 1119.27 88.4091C1119.27 91.4091 1120.3 93.8485 1122.36 95.7273C1124.45 97.5758 1127.67 99.0455 1132 100.136L1142.55 102.727C1148.39 104.152 1152.77 106.409 1155.68 109.5C1158.62 112.591 1160.09 116.47 1160.09 121.136C1160.09 125.076 1159 128.576 1156.82 131.636C1154.64 134.697 1151.59 137.106 1147.68 138.864C1143.8 140.591 1139.3 141.455 1134.18 141.455C1127.36 141.455 1121.74 139.924 1117.32 136.864C1112.89 133.773 1110.06 129.318 1108.82 123.5L1116.59 121.591C1117.59 125.742 1119.55 128.879 1122.45 131C1125.39 133.121 1129.26 134.182 1134.05 134.182C1139.41 134.182 1143.7 132.985 1146.91 130.591C1150.12 128.167 1151.73 125.136 1151.73 121.5C1151.73 118.682 1150.79 116.318 1148.91 114.409C1147.03 112.47 1144.18 111.045 1140.36 110.136L1128.95 107.409C1122.89 105.955 1118.41 103.652 1115.5 100.5C1112.59 97.3485 1111.14 93.4394 1111.14 88.7727C1111.14 84.9242 1112.18 81.5455 1114.27 78.6364C1116.36 75.697 1119.24 73.3939 1122.91 71.7273C1126.58 70.0606 1130.76 69.2273 1135.45 69.2273C1141.85 69.2273 1146.95 70.6818 1150.77 73.5909C1154.62 76.4697 1157.39 80.4394 1159.09 85.5Z" fill="#C2C2C2"/>
</svg>
