<svg width="228" height="62" viewBox="0 0 228 62" fill="none" xmlns="http://www.w3.org/2000/svg">
<path d="M72.9563 24.4838V12.6838H68.3163V10.4838H80.1963V12.6838H75.5563V24.4838H72.9563Z" fill="black" fill-opacity="0.2"/>
<path d="M86.7676 13.6838C89.3276 13.6838 91.2276 15.1438 91.2276 18.3638V24.4838H88.7276V18.6838C88.7276 16.7838 87.7876 15.8638 86.1876 15.8638C84.4076 15.8638 83.2076 16.9438 83.2076 19.0838V24.4838H80.7076V9.64383H83.2076V15.0438C84.0276 14.1638 85.2876 13.6838 86.7676 13.6838Z" fill="black" fill-opacity="0.2"/>
<path d="M103.337 19.2038C103.337 19.4038 103.317 19.7038 103.297 19.9438H94.9166C95.2166 21.5038 96.5166 22.5038 98.3766 22.5038C99.5766 22.5038 100.517 22.1238 101.277 21.3438L102.617 22.8838C101.657 24.0238 100.157 24.6238 98.3166 24.6238C94.7366 24.6238 92.4166 22.3238 92.4166 19.1438C92.4166 15.9638 94.7566 13.6838 97.9366 13.6838C101.057 13.6838 103.337 15.8638 103.337 19.2038ZM97.9366 15.6838C96.3166 15.6838 95.1366 16.7238 94.8966 18.2838H100.957C100.757 16.7438 99.5766 15.6838 97.9366 15.6838Z" fill="black" fill-opacity="0.2"/>
<path d="M119.025 17.2038C120.525 17.6838 121.545 18.8638 121.545 20.6838C121.545 23.0838 119.665 24.4838 116.065 24.4838H109.105V10.4838H115.665C119.025 10.4838 120.825 11.9038 120.825 14.1238C120.825 15.5638 120.105 16.6238 119.025 17.2038ZM115.385 12.5238H111.705V16.3838H115.385C117.185 16.3838 118.205 15.7438 118.205 14.4638C118.205 13.1638 117.185 12.5238 115.385 12.5238ZM115.905 22.4438C117.865 22.4438 118.925 21.8238 118.925 20.4238C118.925 19.0238 117.865 18.4038 115.905 18.4038H111.705V22.4438H115.905Z" fill="black" fill-opacity="0.2"/>
<path d="M125.26 15.3638C125.98 14.2438 127.28 13.6838 129.06 13.6838V16.0638C128.84 16.0238 128.66 16.0038 128.48 16.0038C126.58 16.0038 125.38 17.1238 125.38 19.3038V24.4838H122.88V13.8038H125.26V15.3638Z" fill="black" fill-opacity="0.2"/>
<path d="M131.241 12.0438C130.321 12.0438 129.641 11.3838 129.641 10.5438C129.641 9.70383 130.321 9.04383 131.241 9.04383C132.161 9.04383 132.841 9.66383 132.841 10.4838C132.841 11.3638 132.181 12.0438 131.241 12.0438ZM129.981 24.4838V13.8038H132.481V24.4838H129.981Z" fill="black" fill-opacity="0.2"/>
<path d="M142.782 13.8038H145.162V22.8638C145.162 26.7438 143.142 28.5038 139.402 28.5038C137.402 28.5038 135.422 27.9838 134.202 26.9838L135.322 25.1038C136.262 25.8838 137.782 26.3838 139.262 26.3838C141.622 26.3838 142.662 25.3038 142.662 23.1438V22.5838C141.782 23.5438 140.522 24.0038 139.082 24.0038C136.022 24.0038 133.682 21.9238 133.682 18.8238C133.682 15.7238 136.022 13.6838 139.082 13.6838C140.582 13.6838 141.902 14.1638 142.782 15.2238V13.8038ZM139.462 21.8838C141.342 21.8838 142.702 20.6438 142.702 18.8238C142.702 17.0238 141.342 15.8038 139.462 15.8038C137.562 15.8038 136.202 17.0238 136.202 18.8238C136.202 20.6438 137.562 21.8838 139.462 21.8838Z" fill="black" fill-opacity="0.2"/>
<path d="M153.309 13.6838C155.869 13.6838 157.769 15.1438 157.769 18.3638V24.4838H155.269V18.6838C155.269 16.7838 154.329 15.8638 152.729 15.8638C150.949 15.8638 149.749 16.9438 149.749 19.0838V24.4838H147.249V9.64383H149.749V15.0438C150.569 14.1638 151.829 13.6838 153.309 13.6838Z" fill="black" fill-opacity="0.2"/>
<path d="M165.46 22.1238L166.16 23.9038C165.56 24.3838 164.66 24.6238 163.76 24.6238C161.42 24.6238 160.08 23.3838 160.08 21.0238V15.8838H158.32V13.8838H160.08V11.4438H162.58V13.8838H165.44V15.8838H162.58V20.9638C162.58 22.0038 163.1 22.5638 164.06 22.5638C164.58 22.5638 165.08 22.4238 165.46 22.1238Z" fill="black" fill-opacity="0.2"/>
<path d="M176.705 19.2038C176.705 19.4038 176.685 19.7038 176.665 19.9438H168.285C168.585 21.5038 169.885 22.5038 171.745 22.5038C172.945 22.5038 173.885 22.1238 174.645 21.3438L175.985 22.8838C175.025 24.0238 173.525 24.6238 171.685 24.6238C168.105 24.6238 165.785 22.3238 165.785 19.1438C165.785 15.9638 168.125 13.6838 171.305 13.6838C174.425 13.6838 176.705 15.8638 176.705 19.2038ZM171.305 15.6838C169.685 15.6838 168.505 16.7238 168.265 18.2838H174.325C174.125 16.7438 172.945 15.6838 171.305 15.6838Z" fill="black" fill-opacity="0.2"/>
<path d="M180.287 15.3638C181.007 14.2438 182.307 13.6838 184.087 13.6838V16.0638C183.867 16.0238 183.687 16.0038 183.507 16.0038C181.607 16.0038 180.407 17.1238 180.407 19.3038V24.4838H177.907V13.8038H180.287V15.3638Z" fill="black" fill-opacity="0.2"/>
<path d="M194.013 24.6838C191.833 24.6838 189.653 24.0038 188.493 23.0038L189.393 20.9838C190.513 21.8838 192.293 22.5238 194.013 22.5238C196.193 22.5238 197.113 21.7438 197.113 20.7038C197.113 17.6838 188.793 19.6638 188.793 14.4638C188.793 12.2038 190.593 10.2838 194.433 10.2838C196.113 10.2838 197.873 10.7238 199.093 11.5238L198.273 13.5438C197.013 12.8038 195.633 12.4438 194.413 12.4438C192.253 12.4438 191.373 13.2838 191.373 14.3438C191.373 17.3238 199.673 15.3838 199.673 20.5238C199.673 22.7638 197.853 24.6838 194.013 24.6838Z" fill="black" fill-opacity="0.2"/>
<path d="M202.071 12.0438C201.151 12.0438 200.471 11.3838 200.471 10.5438C200.471 9.70383 201.151 9.04383 202.071 9.04383C202.991 9.04383 203.671 9.66383 203.671 10.4838C203.671 11.3638 203.011 12.0438 202.071 12.0438ZM200.811 24.4838V13.8038H203.311V24.4838H200.811Z" fill="black" fill-opacity="0.2"/>
<path d="M213.352 9.64383H215.852V24.4838H213.452V23.1038C212.612 24.1238 211.372 24.6238 209.912 24.6238C206.812 24.6238 204.512 22.4638 204.512 19.1438C204.512 15.8238 206.812 13.6838 209.912 13.6838C211.292 13.6838 212.512 14.1438 213.352 15.1238V9.64383ZM210.212 22.4838C212.012 22.4838 213.392 21.1838 213.392 19.1438C213.392 17.1038 212.012 15.8038 210.212 15.8038C208.412 15.8038 207.032 17.1038 207.032 19.1438C207.032 21.1838 208.412 22.4838 210.212 22.4838Z" fill="black" fill-opacity="0.2"/>
<path d="M227.962 19.2038C227.962 19.4038 227.942 19.7038 227.922 19.9438H219.542C219.842 21.5038 221.142 22.5038 223.002 22.5038C224.202 22.5038 225.142 22.1238 225.902 21.3438L227.242 22.8838C226.282 24.0238 224.782 24.6238 222.942 24.6238C219.362 24.6238 217.042 22.3238 217.042 19.1438C217.042 15.9638 219.382 13.6838 222.562 13.6838C225.682 13.6838 227.962 15.8638 227.962 19.2038ZM222.562 15.6838C220.942 15.6838 219.762 16.7238 219.522 18.2838H225.582C225.382 16.7438 224.202 15.6838 222.562 15.6838Z" fill="black" fill-opacity="0.2"/>
<path d="M76.6563 48.6838C72.3163 48.6838 69.1163 45.6238 69.1163 41.4838C69.1163 37.3438 72.3163 34.2838 76.6563 34.2838C80.9963 34.2838 84.1963 37.3238 84.1963 41.4838C84.1963 45.6438 80.9963 48.6838 76.6563 48.6838ZM76.6563 46.4038C79.4763 46.4038 81.5763 44.3438 81.5763 41.4838C81.5763 38.6238 79.4763 36.5638 76.6563 36.5638C73.8363 36.5638 71.7363 38.6238 71.7363 41.4838C71.7363 44.3438 73.8363 46.4038 76.6563 46.4038Z" fill="black" fill-opacity="0.2"/>
<path d="M89.8523 35.5238C88.8123 35.5238 88.2723 36.1038 88.2723 37.2438V37.8838H91.2123V39.8838H88.3523V48.4838H85.8523V39.8838H84.0923V37.8838H85.8523V37.2038C85.8523 34.9638 87.1923 33.5038 89.6723 33.5038C90.5323 33.5038 91.3723 33.6838 91.9323 34.0838L91.2323 35.9638C90.8523 35.7038 90.3723 35.5238 89.8523 35.5238Z" fill="black" fill-opacity="0.2"/>
<path d="M106.182 41.2038C107.682 41.6838 108.702 42.8638 108.702 44.6838C108.702 47.0838 106.822 48.4838 103.222 48.4838H96.2624V34.4838H102.822C106.182 34.4838 107.982 35.9038 107.982 38.1238C107.982 39.5638 107.262 40.6238 106.182 41.2038ZM102.542 36.5238H98.8624V40.3838H102.542C104.342 40.3838 105.362 39.7438 105.362 38.4638C105.362 37.1638 104.342 36.5238 102.542 36.5238ZM103.062 46.4438C105.022 46.4438 106.082 45.8238 106.082 44.4238C106.082 43.0238 105.022 42.4038 103.062 42.4038H98.8624V46.4438H103.062Z" fill="black" fill-opacity="0.2"/>
<path d="M110.037 48.4838V33.6438H112.537V48.4838H110.037Z" fill="black" fill-opacity="0.2"/>
<path d="M122.459 37.8038H124.959V48.4838H122.579V47.1238C121.779 48.1038 120.519 48.6238 119.139 48.6238C116.399 48.6238 114.539 47.1238 114.539 43.9038V37.8038H117.039V43.5638C117.039 45.5038 117.959 46.4238 119.539 46.4238C121.279 46.4238 122.459 45.3438 122.459 43.2038V37.8038Z" fill="black" fill-opacity="0.2"/>
<path d="M137.072 43.2038C137.072 43.4038 137.052 43.7038 137.032 43.9438H128.652C128.952 45.5038 130.252 46.5038 132.112 46.5038C133.312 46.5038 134.252 46.1238 135.012 45.3438L136.352 46.8838C135.392 48.0238 133.892 48.6238 132.052 48.6238C128.472 48.6238 126.152 46.3238 126.152 43.1438C126.152 39.9638 128.492 37.6838 131.672 37.6838C134.792 37.6838 137.072 39.8638 137.072 43.2038ZM131.672 39.6838C130.052 39.6838 128.872 40.7238 128.632 42.2838H134.692C134.492 40.7438 133.312 39.6838 131.672 39.6838Z" fill="black" fill-opacity="0.2"/>
<path d="M148.601 34.4838C152.281 34.4838 154.561 36.3638 154.561 39.4638C154.561 42.5438 152.281 44.4438 148.601 44.4438H145.441V48.4838H142.841V34.4838H148.601ZM148.481 42.2438C150.761 42.2438 151.941 41.2238 151.941 39.4638C151.941 37.7038 150.761 36.6838 148.481 36.6838H145.441V42.2438H148.481Z" fill="black" fill-opacity="0.2"/>
<path d="M160.478 48.6238C157.198 48.6238 154.798 46.3438 154.798 43.1438C154.798 39.9438 157.198 37.6838 160.478 37.6838C163.798 37.6838 166.178 39.9438 166.178 43.1438C166.178 46.3438 163.798 48.6238 160.478 48.6238ZM160.478 46.4838C162.298 46.4838 163.658 45.1838 163.658 43.1438C163.658 41.1038 162.298 39.8038 160.478 39.8038C158.678 39.8038 157.318 41.1038 157.318 43.1438C157.318 45.1838 158.678 46.4838 160.478 46.4838Z" fill="black" fill-opacity="0.2"/>
<path d="M175.329 33.6438H177.829V48.4838H175.429V47.1038C174.589 48.1238 173.349 48.6238 171.889 48.6238C168.789 48.6238 166.489 46.4638 166.489 43.1438C166.489 39.8238 168.789 37.6838 171.889 37.6838C173.269 37.6838 174.489 38.1438 175.329 39.1238V33.6438ZM172.189 46.4838C173.989 46.4838 175.369 45.1838 175.369 43.1438C175.369 41.1038 173.989 39.8038 172.189 39.8038C170.389 39.8038 169.009 41.1038 169.009 43.1438C169.009 45.1838 170.389 46.4838 172.189 46.4838Z" fill="black" fill-opacity="0.2"/>
<path d="M184.799 48.6238C181.419 48.6238 179.019 46.3438 179.019 43.1438C179.019 39.9438 181.419 37.6838 184.799 37.6838C186.879 37.6838 188.539 38.5438 189.359 40.1638L187.439 41.2838C186.799 40.2638 185.839 39.8038 184.779 39.8038C182.939 39.8038 181.539 41.0838 181.539 43.1438C181.539 45.2238 182.939 46.4838 184.779 46.4838C185.839 46.4838 186.799 46.0238 187.439 45.0038L189.359 46.1238C188.539 47.7238 186.879 48.6238 184.799 48.6238Z" fill="black" fill-opacity="0.2"/>
<path d="M194.4 37.6838C197.48 37.6838 199.26 39.1438 199.26 42.2238V48.4838H196.9V47.1838C196.3 48.1038 195.14 48.6238 193.54 48.6238C191.1 48.6238 189.56 47.2838 189.56 45.4238C189.56 43.6438 190.76 42.2438 194 42.2438H196.76V42.0838C196.76 40.6238 195.88 39.7638 194.1 39.7638C192.9 39.7638 191.66 40.1638 190.86 40.8238L189.88 39.0038C191.02 38.1238 192.68 37.6838 194.4 37.6838ZM194.06 46.8038C195.28 46.8038 196.34 46.2438 196.76 45.1438V43.9038H194.18C192.48 43.9038 192.02 44.5438 192.02 45.3238C192.02 46.2238 192.78 46.8038 194.06 46.8038Z" fill="black" fill-opacity="0.2"/>
<path d="M204.569 48.6238C202.789 48.6238 201.009 48.1038 200.049 47.4238L201.009 45.5238C201.949 46.1438 203.389 46.5838 204.729 46.5838C206.309 46.5838 206.969 46.1438 206.969 45.4038C206.969 43.3638 200.369 45.2838 200.369 41.0238C200.369 39.0038 202.189 37.6838 205.069 37.6838C206.489 37.6838 208.109 38.0238 209.069 38.6038L208.109 40.5038C207.089 39.9038 206.069 39.7038 205.049 39.7038C203.529 39.7038 202.809 40.2038 202.809 40.9038C202.809 43.0638 209.409 41.1438 209.409 45.3238C209.409 47.3238 207.569 48.6238 204.569 48.6238Z" fill="black" fill-opacity="0.2"/>
<path d="M216.081 46.1238L216.781 47.9038C216.181 48.3838 215.281 48.6238 214.381 48.6238C212.041 48.6238 210.701 47.3838 210.701 45.0238V39.8838H208.941V37.8838H210.701V35.4438H213.201V37.8838H216.061V39.8838H213.201V44.9638C213.201 46.0038 213.721 46.5638 214.681 46.5638C215.201 46.5638 215.701 46.4238 216.081 46.1238Z" fill="black" fill-opacity="0.2"/>
<path d="M28.8117 61.4066C37.187 61.4066 43.9765 61.2446 43.9765 61.0447C43.9765 60.8448 37.187 60.6828 28.8117 60.6828C20.4364 60.6828 13.6469 60.8448 13.6469 61.0447C13.6469 61.2446 20.4364 61.4066 28.8117 61.4066Z" fill="black"/>
<path d="M28.8084 38.6466C33.3503 38.6466 37.0322 34.9646 37.0322 30.4227V24.8473H20.5845V30.4227C20.5845 34.9646 24.2664 38.6466 28.8084 38.6466Z" fill="#305CDE"/>
<path d="M57.3979 37.053C50.0621 29.1254 50.9593 9.51495 51.3213 4.50262C51.3616 3.94578 50.837 3.51824 50.2999 3.67111C46.797 4.6679 35.8521 7.01881 28.8085 0C21.7647 7.01881 10.82 4.6679 7.31686 3.67111C6.77993 3.51824 6.25542 3.94578 6.29554 4.50262C6.65748 9.51495 7.55475 29.1254 0.218907 37.053C-0.0505145 37.344 -0.0759917 37.787 0.168908 38.0991C9.79022 50.3602 21.432 55.3251 26.387 56.9847L26.8544 58.9677V47.3787C18.841 46.4712 12.4725 40.0577 11.6407 32.0217C10.5292 32.004 9.6329 31.1005 9.6329 29.9849C9.6329 28.8582 10.5463 27.9448 11.673 27.9448H13.8024C15.0476 27.9448 16.057 28.9542 16.057 30.1994C16.057 30.209 16.0543 30.2177 16.0541 30.2273L16.057 30.2316C16.057 37.2627 21.7773 42.9831 28.8083 42.9831C35.8394 42.9831 41.5597 37.2627 41.5597 30.2316L41.5625 30.2273C41.5624 30.2177 41.5597 30.209 41.5597 30.1994C41.5597 28.9542 42.569 27.9448 43.8143 27.9448H45.9437C47.0704 27.9448 47.9838 28.8582 47.9838 29.9849C47.9838 31.1005 47.0874 32.004 45.976 32.0217C45.1442 40.0577 38.7757 46.4712 30.7621 47.3787V58.9677H30.7637L31.2818 56.9671C36.2655 55.2903 47.8594 50.3178 57.4476 38.0991C57.6928 37.787 57.6673 37.3442 57.3979 37.053ZM38.2613 30.5637C38.2613 35.7845 34.0291 40.0168 28.8085 40.0168C23.5877 40.0168 19.3555 35.7845 19.3555 30.5637V19.9805H38.2613V30.5637ZM38.2613 18.8566H19.3555V17.9777H38.2613V18.8566ZM38.2613 16.8538H19.3555V14.8988C19.3555 11.3609 21.3004 8.27898 24.178 6.65847V11.2468C24.178 11.6515 24.5062 11.9797 24.911 11.9797C25.3157 11.9797 25.6439 11.6515 25.6439 11.2468V5.99049C26.0114 5.85992 26.3896 5.75196 26.7765 5.66725V11.2468C26.7765 11.6515 27.1047 11.9797 27.5095 11.9797C27.9142 11.9797 28.2424 11.6515 28.2424 11.2468V5.46423C28.43 5.45308 28.6184 5.44591 28.8086 5.44591C28.9989 5.44591 29.1875 5.45324 29.3749 5.46423V11.2468C29.3749 11.6515 29.7031 11.9797 30.1078 11.9797C30.5126 11.9797 30.8408 11.6515 30.8408 11.2468V5.66725C31.2277 5.75212 31.6059 5.85992 31.9734 5.99049V11.2468C31.9734 11.6515 32.3016 11.9797 32.7062 11.9797C33.111 11.9797 33.4391 11.6515 33.4391 11.2468V6.65847C36.3168 8.27898 38.2617 11.3609 38.2617 14.8988L38.2613 16.8538Z" fill="black"/>
<path d="M29.4092 46.0732C32.0953 46.0732 37.3483 44.6264 40.5452 40.6398C40.7792 40.3483 40.7323 39.9226 40.4409 39.6889C40.1489 39.4553 39.7236 39.5018 39.4902 39.7935C36.6926 43.2818 31.8421 44.7574 29.2854 44.719C29.2807 44.7189 29.2757 44.7189 29.2705 44.7189C28.9036 44.7189 28.6025 45.0122 28.5945 45.3808C28.5866 45.7542 28.8829 46.0636 29.2565 46.0716C29.3065 46.0725 29.3572 46.0732 29.4092 46.0732Z" fill="#305CDE"/>
</svg>
