<svg width="666" height="306" viewBox="0 0 666 306" fill="none" xmlns="http://www.w3.org/2000/svg">
<path d="M233 305.5L0.5 271.5L18.5 191.033H419.5L455.5 271.5L233 305.5Z" fill="white"/>
<path d="M44.244 70.5H29.956V3.008H73.572V15.416H44.244V32.43H68.966V44.744H44.244V70.5Z" fill="white"/>
<path d="M95.5078 8.648C95.5078 13.066 91.9358 16.356 86.7658 16.356C81.6898 16.356 78.1178 13.066 78.1178 8.648C78.1178 4.042 81.6898 0.751999 86.7658 0.751999C91.9358 0.751999 95.5078 4.042 95.5078 8.648ZM93.4398 70.5H80.3738V20.304H93.4398V70.5Z" fill="white"/>
<path d="M116.253 43.146V70.5H103.187V20.304H115.219V27.448C118.885 22.466 124.055 19.364 130.635 19.364C140.693 19.364 147.649 25.944 147.649 38.07V70.5H134.677V42.488C134.677 35.062 131.763 30.926 125.841 30.926C120.671 30.926 116.253 35.062 116.253 43.146Z" fill="white"/>
<path d="M153.738 45.402C153.738 30.55 162.48 19.364 176.016 19.364C182.032 19.364 187.108 21.996 190.868 26.79V3.008H203.84V70.5H191.902V63.262C187.954 68.526 182.502 71.44 176.016 71.44C162.48 71.44 153.738 60.066 153.738 45.402ZM167.18 45.402C167.18 54.802 172.538 59.784 178.93 59.784C185.416 59.784 190.774 54.708 190.774 45.214C190.774 35.72 185.322 30.926 178.93 30.926C172.538 30.926 167.18 35.814 167.18 45.402Z" fill="white"/>
<path d="M261.279 70.5V64.296C257.989 68.996 253.007 71.44 246.145 71.44C235.711 71.44 228.755 65.33 228.755 55.93C228.755 46.154 236.651 40.89 251.315 40.89C254.135 40.89 256.579 41.078 259.681 41.454V38.446C259.681 32.806 256.485 29.516 251.033 29.516C245.393 29.516 242.009 32.806 241.539 38.446H229.789C230.541 26.884 238.907 19.364 251.033 19.364C264.193 19.364 271.901 26.602 271.901 38.916V70.5H261.279ZM241.069 55.554C241.069 59.784 244.077 62.416 248.965 62.416C255.639 62.416 259.681 58.75 259.681 52.922V49.35C256.579 48.88 254.417 48.692 252.161 48.692C244.735 48.692 241.069 51.042 241.069 55.554Z" fill="white"/>
<path d="M294.346 43.146V70.5H281.28V20.304H293.312V27.448C296.978 22.466 302.148 19.364 308.728 19.364C318.786 19.364 325.742 25.944 325.742 38.07V70.5H312.77V42.488C312.77 35.062 309.856 30.926 303.934 30.926C298.764 30.926 294.346 35.062 294.346 43.146Z" fill="white"/>
<path d="M331.831 45.402C331.831 30.55 340.573 19.364 354.109 19.364C360.125 19.364 365.201 21.996 368.961 26.79V3.008H381.933V70.5H369.995V63.262C366.047 68.526 360.595 71.44 354.109 71.44C340.573 71.44 331.831 60.066 331.831 45.402ZM345.273 45.402C345.273 54.802 350.631 59.784 357.023 59.784C363.509 59.784 368.867 54.708 368.867 45.214C368.867 35.72 363.415 30.926 357.023 30.926C350.631 30.926 345.273 35.814 345.273 45.402Z" fill="white"/>
<path d="M454.224 70.5H410.608V3.008H424.896V57.622H454.224V70.5Z" fill="white"/>
<path d="M476.16 8.648C476.16 13.066 472.588 16.356 467.418 16.356C462.342 16.356 458.77 13.066 458.77 8.648C458.77 4.042 462.342 0.751999 467.418 0.751999C472.588 0.751999 476.16 4.042 476.16 8.648ZM474.092 70.5H461.026V20.304H474.092V70.5Z" fill="white"/>
<path d="M526.233 54.426C526.233 64.954 518.243 71.44 503.955 71.44C489.667 71.44 481.677 64.578 480.643 53.392H493.145C493.239 58.562 497.657 61.852 504.143 61.852C509.219 61.852 513.073 60.254 513.073 56.682C513.073 53.486 511.005 52.17 506.211 51.23L497.187 49.538C488.163 47.94 482.711 42.958 482.711 35.156C482.711 25.85 490.701 19.364 503.203 19.364C515.799 19.364 524.447 26.038 525.387 36.848H512.885C512.415 31.96 508.749 28.952 503.203 28.952C498.409 28.952 495.213 30.738 495.213 33.934C495.213 36.942 497.281 38.164 501.793 39.01L511.475 40.796C521.251 42.676 526.233 47.188 526.233 54.426Z" fill="white"/>
<path d="M563.472 57.81V69.184C560.276 70.782 557.268 71.44 553.414 71.44C543.074 71.44 536.588 65.518 536.588 54.238V31.49H526.436V20.304H536.588V5.452H549.56V20.304H563.942V31.49H549.56V51.23C549.56 57.058 552.192 59.408 556.892 59.408C559.336 59.408 561.592 58.844 563.472 57.81Z" fill="white"/>
<path d="M590.747 71.346C575.707 71.346 565.649 60.912 565.649 45.214C565.649 30.268 576.083 19.364 590.559 19.364C606.445 19.364 616.973 32.242 614.623 48.598H578.997C579.843 56.776 583.791 61.288 590.465 61.288C596.199 61.288 600.053 58.468 601.557 53.486H614.529C611.709 64.86 602.967 71.346 590.747 71.346ZM590.277 28.952C584.167 28.952 580.313 32.9 579.185 40.326H600.805C600.429 33.37 596.481 28.952 590.277 28.952Z" fill="white"/>
<path d="M634.56 43.146V70.5H621.494V20.304H633.526V27.448C637.192 22.466 642.362 19.364 648.942 19.364C659 19.364 665.956 25.944 665.956 38.07V70.5H652.984V42.488C652.984 35.062 650.07 30.926 644.148 30.926C638.978 30.926 634.56 35.062 634.56 43.146Z" fill="white"/>
<path d="M43.962 106.648C43.962 111.066 40.39 114.356 35.22 114.356C30.144 114.356 26.572 111.066 26.572 106.648C26.572 102.042 30.144 98.752 35.22 98.752C40.39 98.752 43.962 102.042 43.962 106.648ZM41.894 168.5H28.828V118.304H41.894V168.5Z" fill="white"/>
<path d="M64.7074 141.146V168.5H51.6414V118.304H63.6734V125.448C67.3394 120.466 72.5094 117.364 79.0894 117.364C89.1474 117.364 96.1034 123.944 96.1034 136.07V168.5H83.1314V140.488C83.1314 133.062 80.2174 128.926 74.2954 128.926C69.1254 128.926 64.7074 133.062 64.7074 141.146Z" fill="white"/>
<path d="M168.461 118.304L144.021 186.642H129.827L136.971 167.936L117.231 118.304H131.331L143.927 152.708L155.395 118.304H168.461Z" fill="white"/>
<path d="M192.754 169.44C178.184 169.44 167.28 157.972 167.28 143.402C167.28 128.738 178.184 117.364 192.754 117.364C207.324 117.364 218.228 128.738 218.228 143.402C218.228 157.972 207.324 169.44 192.754 169.44ZM192.754 157.878C199.24 157.878 204.786 152.708 204.786 143.402C204.786 134.096 199.24 129.02 192.754 129.02C186.268 129.02 180.722 134.096 180.722 143.402C180.722 152.708 186.268 157.878 192.754 157.878Z" fill="white"/>
<path d="M255.236 147.35V118.304H268.208V168.5H256.27V161.92C253.544 166.338 247.998 169.44 241.606 169.44C231.548 169.44 224.216 163.33 224.216 150.264V118.304H237.282V147.726C237.282 154.776 240.76 157.878 246.024 157.878C250.724 157.878 255.236 154.118 255.236 147.35Z" fill="white"/>
<path d="M291.134 144.154V168.5H278.068V118.304H290.1V127.986C293.766 121.594 301.568 117.74 309.652 117.74V131.276C298.56 130.43 291.134 133.062 291.134 144.154Z" fill="white"/>
<path d="M350.089 168.5H337.117V129.49H326.965V118.304H337.117V115.578C337.117 105.614 342.475 99.974 352.909 99.974C356.105 99.974 358.831 100.538 360.993 101.478V111.818C359.583 111.254 357.703 110.972 356.011 110.972C352.439 110.972 350.089 112.382 350.089 115.86V118.304H363.155V129.49H350.089V168.5Z" fill="white"/>
<path d="M396.779 168.5V162.296C393.489 166.996 388.507 169.44 381.645 169.44C371.21 169.44 364.255 163.33 364.255 153.93C364.255 144.154 372.151 138.89 386.815 138.89C389.635 138.89 392.079 139.078 395.181 139.454V136.446C395.181 130.806 391.985 127.516 386.533 127.516C380.892 127.516 377.509 130.806 377.039 136.446H365.289C366.041 124.884 374.406 117.364 386.533 117.364C399.693 117.364 407.401 124.602 407.401 136.916V168.5H396.779ZM376.569 153.554C376.569 157.784 379.577 160.416 384.465 160.416C391.139 160.416 395.181 156.75 395.181 150.922V147.35C392.079 146.88 389.916 146.692 387.66 146.692C380.234 146.692 376.569 149.042 376.569 153.554Z" fill="white"/>
<path d="M460.25 118.304L441.826 168.5H427.538L409.02 118.304H423.12L435.058 153.648L447.09 118.304H460.25Z" fill="white"/>
<path d="M484.543 169.44C469.973 169.44 459.069 157.972 459.069 143.402C459.069 128.738 469.973 117.364 484.543 117.364C499.113 117.364 510.017 128.738 510.017 143.402C510.017 157.972 499.113 169.44 484.543 169.44ZM484.543 157.878C491.029 157.878 496.575 152.708 496.575 143.402C496.575 134.096 491.029 129.02 484.543 129.02C478.057 129.02 472.511 134.096 472.511 143.402C472.511 152.708 478.057 157.878 484.543 157.878Z" fill="white"/>
<path d="M529.541 144.154V168.5H516.475V118.304H528.507V127.986C532.173 121.594 539.975 117.74 548.059 117.74V131.276C536.967 130.43 529.541 133.062 529.541 144.154Z" fill="white"/>
<path d="M568.1 106.648C568.1 111.066 564.528 114.356 559.358 114.356C554.282 114.356 550.71 111.066 550.71 106.648C550.71 102.042 554.282 98.752 559.358 98.752C564.528 98.752 568.1 102.042 568.1 106.648ZM566.032 168.5H552.966V118.304H566.032V168.5Z" fill="white"/>
<path d="M606.987 155.81V167.184C603.791 168.782 600.784 169.44 596.93 169.44C586.59 169.44 580.103 163.518 580.103 152.238V129.49H569.951V118.304H580.103V103.452H593.076V118.304H607.457V129.49H593.076V149.23C593.076 155.058 595.707 157.408 600.407 157.408C602.851 157.408 605.107 156.844 606.987 155.81Z" fill="white"/>
<path d="M634.262 169.346C619.222 169.346 609.164 158.912 609.164 143.214C609.164 128.268 619.598 117.364 634.074 117.364C649.96 117.364 660.488 130.242 658.138 146.598H622.512C623.358 154.776 627.306 159.288 633.98 159.288C639.714 159.288 643.568 156.468 645.072 151.486H658.044C655.224 162.86 646.482 169.346 634.262 169.346ZM633.792 126.952C627.682 126.952 623.828 130.9 622.7 138.326H644.32C643.944 131.37 639.996 126.952 633.792 126.952Z" fill="white"/>
<path d="M54.866 244.504H44.244V266.5H29.956V199.008H54.866C71.316 199.008 81.562 206.81 81.562 221.474C81.562 236.138 71.316 244.504 54.866 244.504ZM54.772 211.04H44.244V232.472H54.772C62.856 232.472 67.368 228.242 67.368 221.568C67.368 214.894 62.856 211.04 54.772 211.04Z" fill="#305CDE"/>
<path d="M109.534 267.44C94.9643 267.44 84.0603 255.972 84.0603 241.402C84.0603 226.738 94.9643 215.364 109.534 215.364C124.104 215.364 135.008 226.738 135.008 241.402C135.008 255.972 124.104 267.44 109.534 267.44ZM109.534 255.878C116.02 255.878 121.566 250.708 121.566 241.402C121.566 232.096 116.02 227.02 109.534 227.02C103.048 227.02 97.5023 232.096 97.5023 241.402C97.5023 250.708 103.048 255.878 109.534 255.878Z" fill="#305CDE"/>
<path d="M138.176 241.402C138.176 226.55 146.918 215.364 160.454 215.364C166.47 215.364 171.546 217.996 175.306 222.79V199.008H188.278V266.5H176.34V259.262C172.392 264.526 166.94 267.44 160.454 267.44C146.918 267.44 138.176 256.066 138.176 241.402ZM151.618 241.402C151.618 250.802 156.976 255.784 163.368 255.784C169.854 255.784 175.212 250.708 175.212 241.214C175.212 231.72 169.76 226.926 163.368 226.926C156.976 226.926 151.618 231.814 151.618 241.402Z" fill="#305CDE"/>
<path d="M219.211 267.44C204.735 267.44 194.771 256.724 194.771 241.402C194.771 226.362 205.111 215.364 219.211 215.364C232.277 215.364 241.959 224.2 243.557 237.736H229.833C229.175 231.062 225.133 226.926 219.211 226.926C212.443 226.926 208.119 232.472 208.119 241.402C208.119 250.426 212.349 255.878 219.211 255.878C225.227 255.878 229.081 251.93 229.833 245.068H243.557C242.053 258.886 232.653 267.44 219.211 267.44Z" fill="#305CDE"/>
<path d="M279.958 266.5V260.296C276.668 264.996 271.686 267.44 264.824 267.44C254.39 267.44 247.434 261.33 247.434 251.93C247.434 242.154 255.33 236.89 269.994 236.89C272.814 236.89 275.258 237.078 278.36 237.454V234.446C278.36 228.806 275.164 225.516 269.712 225.516C264.072 225.516 260.688 228.806 260.218 234.446H248.468C249.22 222.884 257.586 215.364 269.712 215.364C282.872 215.364 290.58 222.602 290.58 234.916V266.5H279.958ZM259.748 251.554C259.748 255.784 262.756 258.416 267.644 258.416C274.318 258.416 278.36 254.75 278.36 248.922V245.35C275.258 244.88 273.096 244.692 270.84 244.692C263.414 244.692 259.748 247.042 259.748 251.554Z" fill="#305CDE"/>
<path d="M342.353 250.426C342.353 260.954 334.363 267.44 320.075 267.44C305.787 267.44 297.797 260.578 296.763 249.392H309.265C309.359 254.562 313.777 257.852 320.263 257.852C325.339 257.852 329.193 256.254 329.193 252.682C329.193 249.486 327.125 248.17 322.331 247.23L313.307 245.538C304.283 243.94 298.831 238.958 298.831 231.156C298.831 221.85 306.821 215.364 319.323 215.364C331.919 215.364 340.567 222.038 341.507 232.848H329.005C328.535 227.96 324.869 224.952 319.323 224.952C314.529 224.952 311.333 226.738 311.333 229.934C311.333 232.942 313.401 234.164 317.913 235.01L327.595 236.796C337.371 238.676 342.353 243.188 342.353 250.426Z" fill="#305CDE"/>
<path d="M379.592 253.81V265.184C376.396 266.782 373.388 267.44 369.534 267.44C359.194 267.44 352.708 261.518 352.708 250.238V227.49H342.556V216.304H352.708V201.452H365.68V216.304H380.062V227.49H365.68V247.23C365.68 253.058 368.312 255.408 373.012 255.408C375.456 255.408 377.712 254.844 379.592 253.81Z" fill="#305CDE"/>
<path d="M428.187 250.426C428.187 260.954 420.197 267.44 405.909 267.44C391.621 267.44 383.631 260.578 382.597 249.392H395.099C395.193 254.562 399.611 257.852 406.097 257.852C411.173 257.852 415.027 256.254 415.027 252.682C415.027 249.486 412.959 248.17 408.165 247.23L399.141 245.538C390.117 243.94 384.665 238.958 384.665 231.156C384.665 221.85 392.655 215.364 405.157 215.364C417.753 215.364 426.401 222.038 427.341 232.848H414.839C414.369 227.96 410.703 224.952 405.157 224.952C400.363 224.952 397.167 226.738 397.167 229.934C397.167 232.942 399.235 234.164 403.747 235.01L413.429 236.796C423.205 238.676 428.187 243.188 428.187 250.426Z" fill="#305CDE"/>
</svg>
