<svg width="36" height="154" viewBox="0 0 36 154" fill="none" xmlns="http://www.w3.org/2000/svg">
<circle cx="18" cy="18" r="18" transform="matrix(-1 0 0 1 36 0.824829)" fill="#305CDE"/>
<path d="M13.2003 14.9428C13.3442 12.6748 15.1083 11.3968 17.5023 11.3968C20.1123 11.3968 21.5343 12.9088 21.5343 14.8168C21.5343 16.3828 20.5443 17.4448 19.5183 17.7868V17.8588C20.8863 18.2728 21.7683 19.4068 21.7683 21.2248C21.7683 23.3128 20.2923 24.8968 17.5563 24.8968C15.0723 24.8968 13.1463 23.6008 13.0203 21.0268H15.0003C15.0903 22.2508 15.9903 23.1868 17.5383 23.1868C19.0683 23.1868 19.8243 22.2508 19.8243 21.0268C19.8243 19.2988 18.7083 18.7048 16.5663 18.7048H16.0983V17.0128H16.5843C18.4383 16.9948 19.5723 16.4548 19.5723 15.0508C19.5723 13.9168 18.8343 13.1608 17.4303 13.1608C15.9903 13.1608 15.3243 14.0248 15.1983 14.9428H13.2003Z" fill="white"/>
<path d="M18 36.8248L18 153.298" stroke="#305CDE" stroke-width="2"/>
</svg>
