<svg xmlns="http://www.w3.org/2000/svg" fill="none" viewBox="0 0 1029 268">
  <path fill="#D4AF01" d="M208.577.002H59.42C26.603.002 0 26.606 0 59.424V208.58c0 32.817 26.604 59.421 59.421 59.421h149.157c32.818 0 59.422-26.604 59.422-59.421V59.424c0-32.818-26.604-59.422-59.422-59.422Z"></path>
  <path fill="#fff" fill-rule="evenodd" d="M218.057 210.939c0 13.205-10.679 23.919-23.884 23.919H57.031c-13.185 0-23.884-10.694-23.884-23.884V73.832c0-13.19 10.699-23.884 23.884-23.884 27.51 0 53.409 6.901 76.063 19.062 10.091 5.42 15.139 17.058 12.1 28.103l-5.651 20.534c-1.798 6.53 4.144 12.558 10.704 10.85l21.117-5.505c10.879-2.838 22.357 2.069 27.671 11.979 12.141 22.629 19.027 48.492 19.032 75.968h-.01Z" clip-rule="evenodd"></path>
  <path fill="#fff" d="M467.769 138.665h-28.15c-6.684 0-12.101 5.417-12.101 12.101v12.976c0 5.28-1.1 7.263-2.64 8.362-2.199 1.32-4.619 1.757-8.799 1.757-12.098 0-19.356-8.578-19.356-26.176v-12.097c0-15.4 8.358-27.938 34.976-27.938 9.677 0 22.216 1.099 34.313 3.081 8.362 1.537 13.201-2.419 13.201-10.78V71.133c0-7.259-3.519-11.877-10.998-12.976-15.62-2.42-34.097-3.744-49.276-3.744-53.037 0-83.398 20.468-91.495 57.933-1.042 4.813.344 9.832 3.752 13.387l6.375 6.653c5.29 5.523 5.091 14.291-.45 19.563l-6.137 5.836a14.77 14.77 0 0 0-4.34 13.351c6.654 36.419 36.649 56.185 86.578 56.185 13.417 0 39.152-1.104 56.313-3.082 6.817-.657 10.335-5.059 10.335-12.538v-60.931c0-6.684-5.417-12.106-12.101-12.106ZM486.912 72.457v-10.34c0-12.539 10.561-21.117 27.497-21.117h18.255c16.499 0 26.839 8.578 26.839 21.117v10.34c0 13.858-10.34 22.878-26.839 22.878h-18.255c-16.941 0-27.497-9.02-27.497-22.878Zm4.397 140.564v-96.348c0-7.7 4.398-12.097 12.097-12.097H543c7.7 0 12.097 4.397 12.097 12.097v96.348c0 7.699-4.397 12.097-12.097 12.097h-39.594c-7.699 0-12.097-4.398-12.097-12.097ZM877.359 211.258l-7.267-20.238c-2.914-8.111-9.262-15.515-15.227-21.731l-2.34-2.437c-5.289-5.523-5.09-14.291.45-19.567 6.914-6.574 13.965-14.667 17.206-23.638l6.962-19.289c3.077-8.578-.883-13.859-9.682-13.859h-43.554c-7.258 0-11.66 3.52-13.196 10.777-2.203 10.782-5.06 23.757-7.479 29.916-.883 2.42-2.64 3.523-5.501 3.523-3.74 0-6.38-.22-8.358-2.423-1.541-1.758-1.541-5.718-1.541-8.579 0-9.457.658-43.553 1.1-64.45 0-7.7-4.181-12.1-12.097-12.1h-40.256c-6.684 0-12.101 5.416-12.101 12.1v153.761c0 6.68 5.417 12.097 12.097 12.097h40.697c7.92 0 12.318-4.397 11.88-12.539-.441-7.037-.662-12.317-.662-20.017 0-1.757-.216-7.916 1.32-10.556 1.32-2.203 4.623-2.203 7.921-2.203 2.198 0 3.96.883 4.618 3.302 2.203 7.258 5.28 21.117 7.479 31.236 1.541 7.258 5.942 10.777 13.201 10.777h44.653c8.799 0 12.759-5.276 9.677-13.859v-.004Z"></path>
  <path fill="#fff" d="M877.58 169.677V152.3c0-38.278 26.397-64.013 65.774-64.013h19.36c39.376 0 65.776 25.735 65.776 64.013v17.377c0 34.318-26.4 57.633-65.776 57.633h-19.36c-39.377 0-65.774-23.315-65.774-57.633Zm90.851-7.695v-7.7c0-14.3-5.501-23.099-15.399-23.099s-15.179 8.799-15.179 22.878v7.7c0 14.079 5.501 22.658 15.179 22.658s15.399-8.579 15.399-22.437ZM578.419 224.977c-7.691 0-12.097-4.401-12.097-12.097V106.073c0-8.684 7.038-15.721 15.722-15.721h26.777c7.691 0 9.858.989 11.881 6.154 1.637 4.19 1.637 14.296 8.379 14.296 10.106 0 5.616-22.464 39.342-22.654h12.296c22.653 0 32.556 16.062 32.556 35.413v89.306c0 7.704-4.402 12.097-12.097 12.097h-40.252c-7.916 0-12.097-4.402-11.88-12.322.437-20.675 1.099-40.702 1.099-56.75 0-12.097-3.528-18.261-10.781-18.261-6.817 0-10.12 5.943-10.12 18.036.226 15.174.875 35.858 1.537 56.975.225 7.916-4.177 12.322-12.097 12.322H578.41v.013h.009Z"></path>
</svg>
