<svg width="228" height="63" viewBox="0 0 228 63" fill="none" xmlns="http://www.w3.org/2000/svg">
<path d="M72.9563 25.2805V13.4805H68.3163V11.2805H80.1963V13.4805H75.5563V25.2805H72.9563Z" fill="white"/>
<path d="M86.7676 14.4805C89.3276 14.4805 91.2276 15.9405 91.2276 19.1605V25.2805H88.7276V19.4805C88.7276 17.5805 87.7876 16.6605 86.1876 16.6605C84.4076 16.6605 83.2076 17.7405 83.2076 19.8805V25.2805H80.7076V10.4405H83.2076V15.8405C84.0276 14.9605 85.2876 14.4805 86.7676 14.4805Z" fill="white"/>
<path d="M103.337 20.0005C103.337 20.2005 103.317 20.5005 103.297 20.7405H94.9166C95.2166 22.3005 96.5166 23.3005 98.3766 23.3005C99.5766 23.3005 100.517 22.9205 101.277 22.1405L102.617 23.6805C101.657 24.8205 100.157 25.4205 98.3166 25.4205C94.7366 25.4205 92.4166 23.1205 92.4166 19.9405C92.4166 16.7605 94.7566 14.4805 97.9366 14.4805C101.057 14.4805 103.337 16.6605 103.337 20.0005ZM97.9366 16.4805C96.3166 16.4805 95.1366 17.5205 94.8966 19.0805H100.957C100.757 17.5405 99.5766 16.4805 97.9366 16.4805Z" fill="white"/>
<path d="M119.025 18.0005C120.525 18.4805 121.545 19.6605 121.545 21.4805C121.545 23.8805 119.665 25.2805 116.065 25.2805H109.105V11.2805H115.665C119.025 11.2805 120.825 12.7005 120.825 14.9205C120.825 16.3605 120.105 17.4205 119.025 18.0005ZM115.385 13.3205H111.705V17.1805H115.385C117.185 17.1805 118.205 16.5405 118.205 15.2605C118.205 13.9605 117.185 13.3205 115.385 13.3205ZM115.905 23.2405C117.865 23.2405 118.925 22.6205 118.925 21.2205C118.925 19.8205 117.865 19.2005 115.905 19.2005H111.705V23.2405H115.905Z" fill="white"/>
<path d="M125.26 16.1605C125.98 15.0405 127.28 14.4805 129.06 14.4805V16.8605C128.84 16.8205 128.66 16.8005 128.48 16.8005C126.58 16.8005 125.38 17.9205 125.38 20.1005V25.2805H122.88V14.6005H125.26V16.1605Z" fill="white"/>
<path d="M131.241 12.8405C130.321 12.8405 129.641 12.1805 129.641 11.3405C129.641 10.5005 130.321 9.84052 131.241 9.84052C132.161 9.84052 132.841 10.4605 132.841 11.2805C132.841 12.1605 132.181 12.8405 131.241 12.8405ZM129.981 25.2805V14.6005H132.481V25.2805H129.981Z" fill="white"/>
<path d="M142.782 14.6005H145.162V23.6605C145.162 27.5405 143.142 29.3005 139.402 29.3005C137.402 29.3005 135.422 28.7805 134.202 27.7805L135.322 25.9005C136.262 26.6805 137.782 27.1805 139.262 27.1805C141.622 27.1805 142.662 26.1005 142.662 23.9405V23.3805C141.782 24.3405 140.522 24.8005 139.082 24.8005C136.022 24.8005 133.682 22.7205 133.682 19.6205C133.682 16.5205 136.022 14.4805 139.082 14.4805C140.582 14.4805 141.902 14.9605 142.782 16.0205V14.6005ZM139.462 22.6805C141.342 22.6805 142.702 21.4405 142.702 19.6205C142.702 17.8205 141.342 16.6005 139.462 16.6005C137.562 16.6005 136.202 17.8205 136.202 19.6205C136.202 21.4405 137.562 22.6805 139.462 22.6805Z" fill="white"/>
<path d="M153.309 14.4805C155.869 14.4805 157.769 15.9405 157.769 19.1605V25.2805H155.269V19.4805C155.269 17.5805 154.329 16.6605 152.729 16.6605C150.949 16.6605 149.749 17.7405 149.749 19.8805V25.2805H147.249V10.4405H149.749V15.8405C150.569 14.9605 151.829 14.4805 153.309 14.4805Z" fill="white"/>
<path d="M165.46 22.9205L166.16 24.7005C165.56 25.1805 164.66 25.4205 163.76 25.4205C161.42 25.4205 160.08 24.1805 160.08 21.8205V16.6805H158.32V14.6805H160.08V12.2405H162.58V14.6805H165.44V16.6805H162.58V21.7605C162.58 22.8005 163.1 23.3605 164.06 23.3605C164.58 23.3605 165.08 23.2205 165.46 22.9205Z" fill="white"/>
<path d="M176.705 20.0005C176.705 20.2005 176.685 20.5005 176.665 20.7405H168.285C168.585 22.3005 169.885 23.3005 171.745 23.3005C172.945 23.3005 173.885 22.9205 174.645 22.1405L175.985 23.6805C175.025 24.8205 173.525 25.4205 171.685 25.4205C168.105 25.4205 165.785 23.1205 165.785 19.9405C165.785 16.7605 168.125 14.4805 171.305 14.4805C174.425 14.4805 176.705 16.6605 176.705 20.0005ZM171.305 16.4805C169.685 16.4805 168.505 17.5205 168.265 19.0805H174.325C174.125 17.5405 172.945 16.4805 171.305 16.4805Z" fill="white"/>
<path d="M180.287 16.1605C181.007 15.0405 182.307 14.4805 184.087 14.4805V16.8605C183.867 16.8205 183.687 16.8005 183.507 16.8005C181.607 16.8005 180.407 17.9205 180.407 20.1005V25.2805H177.907V14.6005H180.287V16.1605Z" fill="white"/>
<path d="M194.013 25.4805C191.833 25.4805 189.653 24.8005 188.493 23.8005L189.393 21.7805C190.513 22.6805 192.293 23.3205 194.013 23.3205C196.193 23.3205 197.113 22.5405 197.113 21.5005C197.113 18.4805 188.793 20.4605 188.793 15.2605C188.793 13.0005 190.593 11.0805 194.433 11.0805C196.113 11.0805 197.873 11.5205 199.093 12.3205L198.273 14.3405C197.013 13.6005 195.633 13.2405 194.413 13.2405C192.253 13.2405 191.373 14.0805 191.373 15.1405C191.373 18.1205 199.673 16.1805 199.673 21.3205C199.673 23.5605 197.853 25.4805 194.013 25.4805Z" fill="white"/>
<path d="M202.071 12.8405C201.151 12.8405 200.471 12.1805 200.471 11.3405C200.471 10.5005 201.151 9.84052 202.071 9.84052C202.991 9.84052 203.671 10.4605 203.671 11.2805C203.671 12.1605 203.011 12.8405 202.071 12.8405ZM200.811 25.2805V14.6005H203.311V25.2805H200.811Z" fill="white"/>
<path d="M213.352 10.4405H215.852V25.2805H213.452V23.9005C212.612 24.9205 211.372 25.4205 209.912 25.4205C206.812 25.4205 204.512 23.2605 204.512 19.9405C204.512 16.6205 206.812 14.4805 209.912 14.4805C211.292 14.4805 212.512 14.9405 213.352 15.9205V10.4405ZM210.212 23.2805C212.012 23.2805 213.392 21.9805 213.392 19.9405C213.392 17.9005 212.012 16.6005 210.212 16.6005C208.412 16.6005 207.032 17.9005 207.032 19.9405C207.032 21.9805 208.412 23.2805 210.212 23.2805Z" fill="white"/>
<path d="M227.962 20.0005C227.962 20.2005 227.942 20.5005 227.922 20.7405H219.542C219.842 22.3005 221.142 23.3005 223.002 23.3005C224.202 23.3005 225.142 22.9205 225.902 22.1405L227.242 23.6805C226.282 24.8205 224.782 25.4205 222.942 25.4205C219.362 25.4205 217.042 23.1205 217.042 19.9405C217.042 16.7605 219.382 14.4805 222.562 14.4805C225.682 14.4805 227.962 16.6605 227.962 20.0005ZM222.562 16.4805C220.942 16.4805 219.762 17.5205 219.522 19.0805H225.582C225.382 17.5405 224.202 16.4805 222.562 16.4805Z" fill="white"/>
<path d="M76.6563 49.4805C72.3163 49.4805 69.1163 46.4205 69.1163 42.2805C69.1163 38.1405 72.3163 35.0805 76.6563 35.0805C80.9963 35.0805 84.1963 38.1205 84.1963 42.2805C84.1963 46.4405 80.9963 49.4805 76.6563 49.4805ZM76.6563 47.2005C79.4763 47.2005 81.5763 45.1405 81.5763 42.2805C81.5763 39.4205 79.4763 37.3605 76.6563 37.3605C73.8363 37.3605 71.7363 39.4205 71.7363 42.2805C71.7363 45.1405 73.8363 47.2005 76.6563 47.2005Z" fill="white"/>
<path d="M89.8523 36.3205C88.8123 36.3205 88.2723 36.9005 88.2723 38.0405V38.6805H91.2123V40.6805H88.3523V49.2805H85.8523V40.6805H84.0923V38.6805H85.8523V38.0005C85.8523 35.7605 87.1923 34.3005 89.6723 34.3005C90.5323 34.3005 91.3723 34.4805 91.9323 34.8805L91.2323 36.7605C90.8523 36.5005 90.3723 36.3205 89.8523 36.3205Z" fill="white"/>
<path d="M106.182 42.0005C107.682 42.4805 108.702 43.6605 108.702 45.4805C108.702 47.8805 106.822 49.2805 103.222 49.2805H96.2624V35.2805H102.822C106.182 35.2805 107.982 36.7005 107.982 38.9205C107.982 40.3605 107.262 41.4205 106.182 42.0005ZM102.542 37.3205H98.8624V41.1805H102.542C104.342 41.1805 105.362 40.5405 105.362 39.2605C105.362 37.9605 104.342 37.3205 102.542 37.3205ZM103.062 47.2405C105.022 47.2405 106.082 46.6205 106.082 45.2205C106.082 43.8205 105.022 43.2005 103.062 43.2005H98.8624V47.2405H103.062Z" fill="white"/>
<path d="M110.037 49.2805V34.4405H112.537V49.2805H110.037Z" fill="white"/>
<path d="M122.459 38.6005H124.959V49.2805H122.579V47.9205C121.779 48.9005 120.519 49.4205 119.139 49.4205C116.399 49.4205 114.539 47.9205 114.539 44.7005V38.6005H117.039V44.3605C117.039 46.3005 117.959 47.2205 119.539 47.2205C121.279 47.2205 122.459 46.1405 122.459 44.0005V38.6005Z" fill="white"/>
<path d="M137.072 44.0005C137.072 44.2005 137.052 44.5005 137.032 44.7405H128.652C128.952 46.3005 130.252 47.3005 132.112 47.3005C133.312 47.3005 134.252 46.9205 135.012 46.1405L136.352 47.6805C135.392 48.8205 133.892 49.4205 132.052 49.4205C128.472 49.4205 126.152 47.1205 126.152 43.9405C126.152 40.7605 128.492 38.4805 131.672 38.4805C134.792 38.4805 137.072 40.6605 137.072 44.0005ZM131.672 40.4805C130.052 40.4805 128.872 41.5205 128.632 43.0805H134.692C134.492 41.5405 133.312 40.4805 131.672 40.4805Z" fill="white"/>
<path d="M148.601 35.2805C152.281 35.2805 154.561 37.1605 154.561 40.2605C154.561 43.3405 152.281 45.2405 148.601 45.2405H145.441V49.2805H142.841V35.2805H148.601ZM148.481 43.0405C150.761 43.0405 151.941 42.0205 151.941 40.2605C151.941 38.5005 150.761 37.4805 148.481 37.4805H145.441V43.0405H148.481Z" fill="white"/>
<path d="M160.478 49.4205C157.198 49.4205 154.798 47.1405 154.798 43.9405C154.798 40.7405 157.198 38.4805 160.478 38.4805C163.798 38.4805 166.178 40.7405 166.178 43.9405C166.178 47.1405 163.798 49.4205 160.478 49.4205ZM160.478 47.2805C162.298 47.2805 163.658 45.9805 163.658 43.9405C163.658 41.9005 162.298 40.6005 160.478 40.6005C158.678 40.6005 157.318 41.9005 157.318 43.9405C157.318 45.9805 158.678 47.2805 160.478 47.2805Z" fill="white"/>
<path d="M175.329 34.4405H177.829V49.2805H175.429V47.9005C174.589 48.9205 173.349 49.4205 171.889 49.4205C168.789 49.4205 166.489 47.2605 166.489 43.9405C166.489 40.6205 168.789 38.4805 171.889 38.4805C173.269 38.4805 174.489 38.9405 175.329 39.9205V34.4405ZM172.189 47.2805C173.989 47.2805 175.369 45.9805 175.369 43.9405C175.369 41.9005 173.989 40.6005 172.189 40.6005C170.389 40.6005 169.009 41.9005 169.009 43.9405C169.009 45.9805 170.389 47.2805 172.189 47.2805Z" fill="white"/>
<path d="M184.799 49.4205C181.419 49.4205 179.019 47.1405 179.019 43.9405C179.019 40.7405 181.419 38.4805 184.799 38.4805C186.879 38.4805 188.539 39.3405 189.359 40.9605L187.439 42.0805C186.799 41.0605 185.839 40.6005 184.779 40.6005C182.939 40.6005 181.539 41.8805 181.539 43.9405C181.539 46.0205 182.939 47.2805 184.779 47.2805C185.839 47.2805 186.799 46.8205 187.439 45.8005L189.359 46.9205C188.539 48.5205 186.879 49.4205 184.799 49.4205Z" fill="white"/>
<path d="M194.4 38.4805C197.48 38.4805 199.26 39.9405 199.26 43.0205V49.2805H196.9V47.9805C196.3 48.9005 195.14 49.4205 193.54 49.4205C191.1 49.4205 189.56 48.0805 189.56 46.2205C189.56 44.4405 190.76 43.0405 194 43.0405H196.76V42.8805C196.76 41.4205 195.88 40.5605 194.1 40.5605C192.9 40.5605 191.66 40.9605 190.86 41.6205L189.88 39.8005C191.02 38.9205 192.68 38.4805 194.4 38.4805ZM194.06 47.6005C195.28 47.6005 196.34 47.0405 196.76 45.9405V44.7005H194.18C192.48 44.7005 192.02 45.3405 192.02 46.1205C192.02 47.0205 192.78 47.6005 194.06 47.6005Z" fill="white"/>
<path d="M204.569 49.4205C202.789 49.4205 201.009 48.9005 200.049 48.2205L201.009 46.3205C201.949 46.9405 203.389 47.3805 204.729 47.3805C206.309 47.3805 206.969 46.9405 206.969 46.2005C206.969 44.1605 200.369 46.0805 200.369 41.8205C200.369 39.8005 202.189 38.4805 205.069 38.4805C206.489 38.4805 208.109 38.8205 209.069 39.4005L208.109 41.3005C207.089 40.7005 206.069 40.5005 205.049 40.5005C203.529 40.5005 202.809 41.0005 202.809 41.7005C202.809 43.8605 209.409 41.9405 209.409 46.1205C209.409 48.1205 207.569 49.4205 204.569 49.4205Z" fill="white"/>
<path d="M216.081 46.9205L216.781 48.7005C216.181 49.1805 215.281 49.4205 214.381 49.4205C212.041 49.4205 210.701 48.1805 210.701 45.8205V40.6805H208.941V38.6805H210.701V36.2405H213.201V38.6805H216.061V40.6805H213.201V45.7605C213.201 46.8005 213.721 47.3605 214.681 47.3605C215.201 47.3605 215.701 47.2205 216.081 46.9205Z" fill="white"/>
<path d="M28.8117 62.2033C37.187 62.2033 43.9765 62.0413 43.9765 61.8414C43.9765 61.6415 37.187 61.4794 28.8117 61.4794C20.4364 61.4794 13.6469 61.6415 13.6469 61.8414C13.6469 62.0413 20.4364 62.2033 28.8117 62.2033Z" fill="#E6E7E8"/>
<path d="M28.8084 39.4432C33.3503 39.4432 37.0322 35.7613 37.0322 31.2194V25.644H20.5845V31.2194C20.5845 35.7613 24.2664 39.4432 28.8084 39.4432Z" fill="#305CDE"/>
<path d="M57.3979 37.8496C50.0621 29.9221 50.9593 10.3116 51.3213 5.29931C51.3616 4.74247 50.837 4.31493 50.2999 4.4678C46.797 5.46459 35.8521 7.8155 28.8085 0.796688C21.7647 7.8155 10.82 5.46459 7.31686 4.4678C6.77993 4.31493 6.25542 4.74247 6.29554 5.29931C6.65748 10.3116 7.55475 29.9221 0.218907 37.8496C-0.0505145 38.1407 -0.0759917 38.5837 0.168908 38.8958C9.79022 51.1569 21.432 56.1217 26.387 57.7814L26.8544 59.7643V48.1754C18.841 47.2679 12.4725 40.8544 11.6407 32.8184C10.5292 32.8007 9.6329 31.8972 9.6329 30.7816C9.6329 29.6549 10.5463 28.7415 11.673 28.7415H13.8024C15.0476 28.7415 16.057 29.7509 16.057 30.9961C16.057 31.0057 16.0543 31.0144 16.0541 31.024L16.057 31.0283C16.057 38.0593 21.7773 43.7798 28.8083 43.7798C35.8394 43.7798 41.5597 38.0593 41.5597 31.0283L41.5625 31.024C41.5624 31.0144 41.5597 31.0057 41.5597 30.9961C41.5597 29.7509 42.569 28.7415 43.8143 28.7415H45.9437C47.0704 28.7415 47.9838 29.6549 47.9838 30.7816C47.9838 31.8972 47.0874 32.8007 45.976 32.8184C45.1442 40.8544 38.7757 47.2679 30.7621 48.1754V59.7643H30.7637L31.2818 57.7638C36.2655 56.087 47.8594 51.1145 57.4476 38.8958C57.6928 38.5837 57.6673 38.1409 57.3979 37.8496ZM38.2613 31.3604C38.2613 36.5812 34.0291 40.8134 28.8085 40.8134C23.5877 40.8134 19.3555 36.5812 19.3555 31.3604V20.7772H38.2613V31.3604ZM38.2613 19.6533H19.3555V18.7744H38.2613V19.6533ZM38.2613 17.6505H19.3555V15.6954C19.3555 12.1576 21.3004 9.07567 24.178 7.45516V12.0434C24.178 12.4482 24.5062 12.7764 24.911 12.7764C25.3157 12.7764 25.6439 12.4482 25.6439 12.0434V6.78718C26.0114 6.65661 26.3896 6.54865 26.7765 6.46394V12.0434C26.7765 12.4482 27.1047 12.7764 27.5095 12.7764C27.9142 12.7764 28.2424 12.4482 28.2424 12.0434V6.26091C28.43 6.24977 28.6184 6.2426 28.8086 6.2426C28.9989 6.2426 29.1875 6.24993 29.3749 6.26091V12.0434C29.3749 12.4482 29.7031 12.7764 30.1078 12.7764C30.5126 12.7764 30.8408 12.4482 30.8408 12.0434V6.46394C31.2277 6.54881 31.6059 6.65661 31.9734 6.78718V12.0434C31.9734 12.4482 32.3016 12.7764 32.7062 12.7764C33.111 12.7764 33.4391 12.4482 33.4391 12.0434V7.45516C36.3168 9.07567 38.2617 12.1576 38.2617 15.6954L38.2613 17.6505Z" fill="white"/>
<path d="M29.4092 46.8698C32.0953 46.8698 37.3483 45.4231 40.5452 41.4365C40.7792 41.145 40.7323 40.7193 40.4409 40.4856C40.1489 40.252 39.7236 40.2985 39.4902 40.5902C36.6926 44.0785 31.8421 45.5541 29.2854 45.5157C29.2807 45.5156 29.2757 45.5156 29.2705 45.5156C28.9036 45.5156 28.6025 45.8089 28.5945 46.1775C28.5866 46.5509 28.8829 46.8603 29.2565 46.8683C29.3065 46.8692 29.3572 46.8698 29.4092 46.8698Z" fill="#305CDE"/>
</svg>
