<svg width="24" height="24" viewBox="0 0 24 24" fill="none" xmlns="http://www.w3.org/2000/svg">
<rect width="24" height="24" rx="12" fill="black"/>
<path d="M14.6672 10.3425C15.619 11.0252 16.7849 11.427 18.0441 11.427V8.99515C17.8058 8.9952 17.5681 8.97026 17.335 8.92069V10.8349C16.0758 10.8349 14.91 10.4331 13.9581 9.75044V14.713C13.9581 17.1956 11.9527 19.208 9.47913 19.208C8.55618 19.208 7.69833 18.9279 6.98572 18.4477C7.79905 19.2823 8.9333 19.8 10.1881 19.8C12.6619 19.8 14.6673 17.7876 14.6673 15.305V10.3425H14.6672ZM15.5421 7.88908C15.0557 7.35581 14.7363 6.66665 14.6672 5.90476V5.59198H13.9952C14.1643 6.56034 14.7413 7.38766 15.5421 7.88908ZM8.55026 16.5427C8.27851 16.1851 8.13165 15.7476 8.13231 15.2979C8.13231 14.1625 9.04955 13.2418 10.1812 13.2418C10.3921 13.2418 10.6017 13.2742 10.8027 13.3382V10.852C10.5678 10.8197 10.3307 10.806 10.0938 10.811V12.7461C9.89267 12.6821 9.68294 12.6496 9.47199 12.6498C8.34037 12.6498 7.42319 13.5704 7.42319 14.7059C7.42319 15.5089 7.88166 16.204 8.55026 16.5427Z" fill="#FF004F"/>
<path d="M13.958 9.75039C14.91 10.4331 16.0757 10.8348 17.3349 10.8348V8.92064C16.632 8.77039 16.0098 8.40179 15.542 7.88909C14.7412 7.38761 14.1643 6.56029 13.9951 5.59198H12.2299V15.3049C12.2259 16.4372 11.3102 17.3541 10.181 17.3541C9.51559 17.3541 8.92443 17.0358 8.55004 16.5427C7.88149 16.204 7.42303 15.5088 7.42303 14.706C7.42303 13.5705 8.34021 12.6499 9.47183 12.6499C9.68864 12.6499 9.89762 12.6838 10.0936 12.7462V10.8111C7.66352 10.8615 5.70911 12.8542 5.70911 15.3049C5.70911 16.5283 6.1958 17.6374 6.98571 18.4477C7.69832 18.9279 8.55616 19.208 9.47911 19.208C11.9527 19.208 13.958 17.1955 13.958 14.713V9.75039H13.958Z" fill="white"/>
<path d="M17.3349 8.92065V8.40307C16.7011 8.40403 16.0798 8.2259 15.542 7.88904C16.018 8.41206 16.6449 8.77269 17.3349 8.92065ZM13.9951 5.59199C13.979 5.49945 13.9666 5.40629 13.958 5.31278V5H11.5206V14.713C11.5168 15.8452 10.6011 16.762 9.47185 16.762C9.1403 16.762 8.82727 16.6831 8.55006 16.5427C8.92445 17.0358 9.5156 17.354 10.181 17.354C11.3101 17.354 12.2259 16.4373 12.2299 15.3049V5.59199H13.9951ZM10.0938 10.8111V10.2601C9.89009 10.2322 9.68476 10.2181 9.47918 10.2183C7.00535 10.2182 5 12.2307 5 14.713C5 16.2693 5.78814 17.6409 6.98577 18.4477C6.19586 17.6374 5.70917 16.5282 5.70917 15.3049C5.70917 12.8542 7.66353 10.8615 10.0938 10.8111Z" fill="#00F2EA"/>
</svg>
