<svg width="58" height="62" viewBox="0 0 58 62" fill="none" xmlns="http://www.w3.org/2000/svg">
<path d="M28.8117 61.4066C37.187 61.4066 43.9765 61.2446 43.9765 61.0447C43.9765 60.8448 37.187 60.6828 28.8117 60.6828C20.4364 60.6828 13.6469 60.8448 13.6469 61.0447C13.6469 61.2446 20.4364 61.4066 28.8117 61.4066Z" fill="black"/>
<path d="M28.8084 38.6466C33.3503 38.6466 37.0322 34.9646 37.0322 30.4227V24.8473H20.5845V30.4227C20.5845 34.9646 24.2664 38.6466 28.8084 38.6466Z" fill="#305CDE"/>
<path d="M57.3979 37.053C50.0621 29.1254 50.9593 9.51495 51.3213 4.50262C51.3616 3.94578 50.837 3.51824 50.2999 3.67111C46.797 4.6679 35.8521 7.01881 28.8085 0C21.7647 7.01881 10.82 4.6679 7.31686 3.67111C6.77993 3.51824 6.25542 3.94578 6.29554 4.50262C6.65748 9.51495 7.55475 29.1254 0.218907 37.053C-0.0505145 37.344 -0.0759917 37.787 0.168908 38.0991C9.79022 50.3602 21.432 55.3251 26.387 56.9847L26.8544 58.9677V47.3787C18.841 46.4712 12.4725 40.0577 11.6407 32.0217C10.5292 32.004 9.6329 31.1005 9.6329 29.9849C9.6329 28.8582 10.5463 27.9448 11.673 27.9448H13.8024C15.0476 27.9448 16.057 28.9542 16.057 30.1994C16.057 30.209 16.0543 30.2177 16.0541 30.2273L16.057 30.2316C16.057 37.2627 21.7773 42.9831 28.8083 42.9831C35.8394 42.9831 41.5597 37.2627 41.5597 30.2316L41.5625 30.2273C41.5624 30.2177 41.5597 30.209 41.5597 30.1994C41.5597 28.9542 42.569 27.9448 43.8143 27.9448H45.9437C47.0704 27.9448 47.9838 28.8582 47.9838 29.9849C47.9838 31.1005 47.0874 32.004 45.976 32.0217C45.1442 40.0577 38.7757 46.4712 30.7621 47.3787V58.9677H30.7637L31.2818 56.9671C36.2655 55.2903 47.8594 50.3178 57.4476 38.0991C57.6928 37.787 57.6673 37.3442 57.3979 37.053ZM38.2613 30.5637C38.2613 35.7845 34.0291 40.0168 28.8085 40.0168C23.5877 40.0168 19.3555 35.7845 19.3555 30.5637V19.9805H38.2613V30.5637ZM38.2613 18.8566H19.3555V17.9777H38.2613V18.8566ZM38.2613 16.8538H19.3555V14.8988C19.3555 11.3609 21.3004 8.27898 24.178 6.65847V11.2468C24.178 11.6515 24.5062 11.9797 24.911 11.9797C25.3157 11.9797 25.6439 11.6515 25.6439 11.2468V5.99049C26.0114 5.85992 26.3896 5.75196 26.7765 5.66725V11.2468C26.7765 11.6515 27.1047 11.9797 27.5095 11.9797C27.9142 11.9797 28.2424 11.6515 28.2424 11.2468V5.46423C28.43 5.45308 28.6184 5.44591 28.8086 5.44591C28.9989 5.44591 29.1875 5.45324 29.3749 5.46423V11.2468C29.3749 11.6515 29.7031 11.9797 30.1078 11.9797C30.5126 11.9797 30.8408 11.6515 30.8408 11.2468V5.66725C31.2277 5.75212 31.6059 5.85992 31.9734 5.99049V11.2468C31.9734 11.6515 32.3016 11.9797 32.7062 11.9797C33.111 11.9797 33.4391 11.6515 33.4391 11.2468V6.65847C36.3168 8.27898 38.2617 11.3609 38.2617 14.8988L38.2613 16.8538Z" fill="#646464"/>
<path d="M29.4092 46.0732C32.0953 46.0732 37.3483 44.6264 40.5452 40.6398C40.7792 40.3483 40.7323 39.9226 40.4409 39.6889C40.1489 39.4553 39.7236 39.5018 39.4902 39.7935C36.6926 43.2818 31.8421 44.7574 29.2854 44.719C29.2807 44.7189 29.2757 44.7189 29.2705 44.7189C28.9036 44.7189 28.6025 45.0122 28.5945 45.3808C28.5866 45.7542 28.8829 46.0636 29.2565 46.0716C29.3065 46.0725 29.3572 46.0732 29.4092 46.0732Z" fill="#305CDE"/>
</svg>
