<svg width="24" height="24" viewBox="0 0 24 24" fill="none" xmlns="http://www.w3.org/2000/svg">
<path d="M23.5057 6.22935C23.2289 5.20135 22.4184 4.39081 21.3904 4.11404C19.5123 3.60004 11.9999 3.60004 11.9999 3.60004C11.9999 3.60004 4.48762 3.60004 2.60954 4.09427C1.60131 4.37104 0.771002 5.20135 0.494232 6.22935C0 8.10743 0 12.002 0 12.002C0 12.002 0 15.9163 0.494232 17.7746C0.771002 18.8026 1.58154 19.6131 2.60954 19.8899C4.50739 20.4039 11.9999 20.4039 11.9999 20.4039C11.9999 20.4039 19.5123 20.4039 21.3904 19.9097C22.4184 19.6329 23.2289 18.8224 23.5057 17.7944C23.9999 15.9163 23.9999 12.0217 23.9999 12.0217C23.9999 12.0217 24.0197 8.10743 23.5057 6.22935Z" fill="#FF0000"/>
<path d="M9.60791 15.5999L15.855 12.0019L9.60791 8.40393V15.5999Z" fill="white"/>
</svg>
