<svg width="38" height="37" viewBox="0 0 38 37" fill="none" xmlns="http://www.w3.org/2000/svg">
<path d="M32.0818 5.41821C24.8575 -1.80607 13.1425 -1.80607 5.91821 5.41821C-1.30607 12.6425 -1.30607 24.3575 5.91821 31.5818C13.1425 38.8061 24.8575 38.8061 32.0818 31.5818C39.3061 24.3575 39.3061 12.6425 32.0818 5.41821ZM27.0834 19.6325L21.304 22.9517L15.6417 26.2319C15.4464 26.3881 15.1731 26.4662 14.8997 26.4662C14.1578 26.4662 13.572 25.8805 13.572 25.1385V18.5V11.8224C13.572 11.5881 13.6111 11.3929 13.7282 11.1586C14.0797 10.5338 14.8997 10.2995 15.5245 10.69L21.2259 13.9702C21.2649 13.9702 21.2649 14.0092 21.304 14.0092L27.0834 17.3285C27.2786 17.4456 27.4348 17.6018 27.591 17.7971C27.9425 18.461 27.7082 19.281 27.0834 19.6325Z" fill="#305CDE"/>
</svg>
