<svg width="680" height="200" viewBox="0 0 680 200" fill="none" xmlns="http://www.w3.org/2000/svg">
<path d="M159.153 88.652C126.919 69.5087 73.7493 67.7488 42.9777 77.0881C38.0349 78.5873 32.81 75.7984 31.3135 70.8565C29.816 65.912 32.6022 60.6898 37.5468 59.1879C72.8716 48.4659 131.591 50.5365 168.7 72.5644C173.146 75.2037 174.602 80.9436 171.968 85.3804C169.331 89.8252 163.587 91.2913 159.153 88.652ZM158.097 117.005C155.836 120.675 151.037 121.826 147.372 119.572C120.5 103.054 79.5205 98.2679 47.727 107.919C43.6046 109.164 39.2493 106.841 37.9973 102.724C37.4004 100.746 37.6125 98.6111 38.5871 96.7885C39.5616 94.9659 41.2192 93.6042 43.1962 93.0018C79.5151 81.9798 124.666 87.3175 155.532 106.286C159.197 108.543 160.35 113.343 158.097 117.005ZM145.861 144.234C145.435 144.934 144.875 145.542 144.214 146.025C143.552 146.508 142.802 146.856 142.006 147.049C141.21 147.242 140.384 147.275 139.575 147.148C138.765 147.021 137.989 146.736 137.291 146.308C113.808 131.957 84.251 128.715 49.442 136.666C48.6445 136.849 47.8188 136.872 47.0121 136.736C46.2054 136.599 45.4336 136.304 44.7408 135.869C44.0479 135.434 43.4475 134.867 42.974 134.2C42.5004 133.532 42.163 132.778 41.9809 131.981C41.7975 131.183 41.7733 130.357 41.9097 129.549C42.0461 128.742 42.3404 127.97 42.7757 127.276C43.2111 126.583 43.7789 125.983 44.4467 125.509C45.1145 125.035 45.8692 124.698 46.6675 124.517C84.7597 115.81 117.434 119.557 143.793 135.663C144.491 136.09 145.099 136.65 145.581 137.312C146.063 137.974 146.411 138.724 146.603 139.52C146.795 140.316 146.828 141.142 146.701 141.951C146.574 142.76 146.288 143.536 145.861 144.234ZM99.9982 0C44.7724 0 0 44.7706 0 99.9982C0 155.231 44.7724 200 99.9991 200C155.228 200 200 155.231 200 99.9982C200 44.7715 155.228 0 99.9982 0Z" fill="white"/>
<path d="M296.773 72.5C296.348 68.5303 294.561 65.4394 291.409 63.2273C288.288 61.0151 284.227 59.9091 279.227 59.9091C275.712 59.9091 272.697 60.4394 270.182 61.5C267.667 62.5606 265.742 64 264.409 65.8182C263.076 67.6364 262.394 69.7121 262.364 72.0455C262.364 73.9848 262.803 75.6667 263.682 77.0909C264.591 78.5152 265.818 79.7273 267.364 80.7273C268.909 81.697 270.621 82.5151 272.5 83.1818C274.379 83.8485 276.273 84.4091 278.182 84.8636L286.909 87.0455C290.424 87.8636 293.803 88.9697 297.045 90.3636C300.318 91.7576 303.242 93.5152 305.818 95.6364C308.424 97.7576 310.485 100.318 312 103.318C313.515 106.318 314.273 109.833 314.273 113.864C314.273 119.318 312.879 124.121 310.091 128.273C307.303 132.394 303.273 135.621 298 137.955C292.758 140.258 286.409 141.409 278.955 141.409C271.712 141.409 265.424 140.288 260.091 138.045C254.788 135.803 250.636 132.53 247.636 128.227C244.667 123.924 243.061 118.682 242.818 112.5H259.409C259.652 115.742 260.652 118.439 262.409 120.591C264.167 122.742 266.455 124.348 269.273 125.409C272.121 126.47 275.303 127 278.818 127C282.485 127 285.697 126.455 288.455 125.364C291.242 124.242 293.424 122.697 295 120.727C296.576 118.727 297.379 116.394 297.409 113.727C297.379 111.303 296.667 109.303 295.273 107.727C293.879 106.121 291.924 104.788 289.409 103.727C286.924 102.636 284.015 101.667 280.682 100.818L270.091 98.0909C262.424 96.1212 256.364 93.1364 251.909 89.1364C247.485 85.1061 245.273 79.7576 245.273 73.0909C245.273 67.6061 246.758 62.803 249.727 58.6818C252.727 54.5606 256.803 51.3636 261.955 49.0909C267.106 46.7879 272.939 45.6364 279.455 45.6364C286.061 45.6364 291.848 46.7879 296.818 49.0909C301.818 51.3636 305.742 54.5303 308.591 58.5909C311.439 62.6212 312.909 67.2576 313 72.5H296.773Z" fill="#C2C2C2"/>
<path d="M328.58 166.182V70.1818H344.761V81.7273H345.716C346.564 80.0303 347.761 78.2273 349.307 76.3182C350.852 74.3788 352.943 72.7273 355.58 71.3636C358.216 69.9697 361.58 69.2727 365.67 69.2727C371.064 69.2727 375.928 70.6515 380.261 73.4091C384.625 76.1364 388.08 80.1818 390.625 85.5455C393.201 90.8788 394.489 97.4242 394.489 105.182C394.489 112.848 393.231 119.364 390.716 124.727C388.201 130.091 384.777 134.182 380.443 137C376.11 139.818 371.201 141.227 365.716 141.227C361.716 141.227 358.398 140.561 355.761 139.227C353.125 137.894 351.004 136.288 349.398 134.409C347.822 132.5 346.595 130.697 345.716 129H345.034V166.182H328.58ZM344.716 105.091C344.716 109.606 345.352 113.561 346.625 116.955C347.928 120.348 349.792 123 352.216 124.909C354.67 126.788 357.64 127.727 361.125 127.727C364.761 127.727 367.807 126.758 370.261 124.818C372.716 122.848 374.564 120.167 375.807 116.773C377.08 113.348 377.716 109.455 377.716 105.091C377.716 100.758 377.095 96.9091 375.852 93.5455C374.61 90.1818 372.761 87.5455 370.307 85.6364C367.852 83.7273 364.792 82.7727 361.125 82.7727C357.61 82.7727 354.625 83.697 352.17 85.5455C349.716 87.3939 347.852 89.9848 346.58 93.3182C345.337 96.6515 344.716 100.576 344.716 105.091Z" fill="#C2C2C2"/>
<path d="M439.034 141.364C432.216 141.364 426.307 139.864 421.307 136.864C416.307 133.864 412.428 129.667 409.67 124.273C406.943 118.879 405.58 112.576 405.58 105.364C405.58 98.1515 406.943 91.8333 409.67 86.4091C412.428 80.9848 416.307 76.7727 421.307 73.7727C426.307 70.7727 432.216 69.2727 439.034 69.2727C445.852 69.2727 451.761 70.7727 456.761 73.7727C461.761 76.7727 465.625 80.9848 468.352 86.4091C471.11 91.8333 472.489 98.1515 472.489 105.364C472.489 112.576 471.11 118.879 468.352 124.273C465.625 129.667 461.761 133.864 456.761 136.864C451.761 139.864 445.852 141.364 439.034 141.364ZM439.125 128.182C442.822 128.182 445.913 127.167 448.398 125.136C450.883 123.076 452.731 120.318 453.943 116.864C455.186 113.409 455.807 109.561 455.807 105.318C455.807 101.045 455.186 97.1818 453.943 93.7273C452.731 90.2424 450.883 87.4697 448.398 85.4091C445.913 83.3485 442.822 82.3182 439.125 82.3182C435.337 82.3182 432.186 83.3485 429.67 85.4091C427.186 87.4697 425.322 90.2424 424.08 93.7273C422.867 97.1818 422.261 101.045 422.261 105.318C422.261 109.561 422.867 113.409 424.08 116.864C425.322 120.318 427.186 123.076 429.67 125.136C432.186 127.167 435.337 128.182 439.125 128.182Z" fill="#C2C2C2"/>
<path d="M521.318 70.1818V82.9091H481.182V70.1818H521.318ZM491.091 53.4545H507.545V119C507.545 121.212 507.879 122.909 508.545 124.091C509.242 125.242 510.152 126.03 511.273 126.455C512.394 126.879 513.636 127.091 515 127.091C516.03 127.091 516.97 127.015 517.818 126.864C518.697 126.712 519.364 126.576 519.818 126.455L522.591 139.318C521.712 139.621 520.455 139.955 518.818 140.318C517.212 140.682 515.242 140.894 512.909 140.955C508.788 141.076 505.076 140.455 501.773 139.091C498.47 137.697 495.848 135.545 493.909 132.636C492 129.727 491.061 126.091 491.091 121.727V53.4545Z" fill="#C2C2C2"/>
<path d="M535.08 140V70.1818H551.534V140H535.08ZM543.352 60.2727C540.746 60.2727 538.504 59.4091 536.625 57.6818C534.746 55.9242 533.807 53.8182 533.807 51.3636C533.807 48.8788 534.746 46.7727 536.625 45.0454C538.504 43.2879 540.746 42.4091 543.352 42.4091C545.989 42.4091 548.231 43.2879 550.08 45.0454C551.958 46.7727 552.898 48.8788 552.898 51.3636C552.898 53.8182 551.958 55.9242 550.08 57.6818C548.231 59.4091 545.989 60.2727 543.352 60.2727Z" fill="#C2C2C2"/>
<path d="M603.818 70.1818V82.9091H562.545V70.1818H603.818ZM572.864 140V63.5909C572.864 58.8939 573.833 54.9848 575.773 51.8636C577.742 48.7424 580.379 46.4091 583.682 44.8636C586.985 43.3182 590.652 42.5454 594.682 42.5454C597.53 42.5454 600.061 42.7727 602.273 43.2273C604.485 43.6818 606.121 44.0909 607.182 44.4545L603.909 57.1818C603.212 56.9697 602.333 56.7576 601.273 56.5454C600.212 56.303 599.03 56.1818 597.727 56.1818C594.667 56.1818 592.5 56.9242 591.227 58.4091C589.985 59.8636 589.364 61.9545 589.364 64.6818V140H572.864Z" fill="#C2C2C2"/>
<path d="M626.932 166.182C624.689 166.182 622.614 166 620.705 165.636C618.826 165.303 617.326 164.909 616.205 164.455L620.023 151.636C622.417 152.333 624.553 152.667 626.432 152.636C628.311 152.606 629.962 152.015 631.386 150.864C632.841 149.742 634.068 147.864 635.068 145.227L636.477 141.455L611.159 70.1818H628.614L644.705 122.909H645.432L661.568 70.1818H679.068L651.114 148.455C649.811 152.152 648.083 155.318 645.932 157.955C643.78 160.621 641.144 162.652 638.023 164.045C634.932 165.47 631.235 166.182 626.932 166.182Z" fill="#C2C2C2"/>
</svg>
