<svg width="225" height="66" viewBox="0 0 225 66" fill="none" xmlns="http://www.w3.org/2000/svg">
<path d="M42.9112 23.7026C47.1346 26.7297 52.3114 28.5138 57.8981 28.5138V17.7245C56.8422 17.7245 55.7864 17.6127 54.7483 17.3936V25.8847C49.1572 25.8847 43.9849 24.1006 39.7615 21.0735V43.0903C39.7615 54.1032 30.8603 63.0325 19.883 63.0325C15.7844 63.0325 11.9797 61.7894 8.81665 59.6611C12.4253 63.3633 17.4595 65.6616 23.0328 65.6616C34.0145 65.6616 42.9157 56.7324 42.9157 45.7195V23.7026H42.9112ZM46.7961 12.8194C44.6354 10.4541 43.2186 7.3957 42.9112 4.01538V2.62927H39.9264C40.6793 6.92621 43.2365 10.5972 46.7916 12.8194H46.7961ZM15.7576 51.2103C14.5503 49.6229 13.8999 47.6824 13.9043 45.6882C13.9043 40.649 17.9763 36.5667 22.9971 36.5667C23.9327 36.5667 24.8638 36.7097 25.7548 36.9959V25.9651C24.7123 25.8221 23.6609 25.7595 22.6095 25.7818V34.3668C21.7185 34.0806 20.7874 33.9375 19.8474 33.9375C14.8265 33.9375 10.7546 38.0198 10.7546 43.059C10.7546 46.6227 12.7906 49.7034 15.7576 51.2103Z" fill="#EDEDED"/>
<path d="M39.7613 21.078C43.9847 24.1051 49.1615 25.8891 54.7482 25.8891V17.3981C51.6296 16.7318 48.8677 15.0953 46.7916 12.8194C43.2365 10.5927 40.6748 6.92174 39.9264 2.62927H32.0897V45.7239C32.0719 50.7497 28.0089 54.8141 22.9969 54.8141C20.0432 54.8141 17.4192 53.4012 15.7575 51.2147C12.7904 49.7124 10.7544 46.6271 10.7544 43.068C10.7544 38.0288 14.8264 33.9465 19.8472 33.9465C20.8095 33.9465 21.7362 34.0985 22.6094 34.3757V25.7908C11.8236 26.0143 3.14964 34.8541 3.14964 45.7284C3.14964 51.1566 5.31035 56.0751 8.81648 59.67C11.9796 61.7984 15.7887 63.0414 19.8829 63.0414C30.8646 63.0414 39.7613 54.1121 39.7613 43.0993V21.078Z" fill="white"/>
<path d="M54.7483 17.3936L54.7483 15.0952C51.9371 15.0952 49.175 14.3083 46.7915 12.8148C48.9032 15.1355 51.6877 16.7363 54.7483 17.3936ZM39.9263 2.62467C39.855 2.21331 39.8015 1.80195 39.7614 1.38611V0H28.9445V43.0947C28.9267 48.116 24.8637 52.1849 19.8518 52.1849C18.3816 52.1849 16.9916 51.8361 15.762 51.2101C17.4238 53.3966 20.0478 54.8096 23.0015 54.8096C28.0134 54.8096 32.0765 50.7406 32.0943 45.7193V2.62467H39.9307H39.9263ZM22.6095 25.7818L22.6094 23.3359C21.7051 23.2107 20.7962 23.1481 19.8829 23.1481C8.90122 23.1481 0 32.0773 0 43.0902C0 49.9939 3.49722 56.0794 8.81211 59.6609C5.30598 56.066 3.14527 51.1431 3.14527 45.7193C3.14527 34.8451 11.8193 26.0053 22.605 25.7817L22.6095 25.7818Z" fill="white"/>
<path d="M180.105 54.0091C187.959 54.0091 194.33 47.6688 194.33 39.8484C194.33 32.0281 187.959 25.6877 180.105 25.6877H177.962C185.816 25.6877 192.187 32.0281 192.187 39.8484C192.187 47.6688 185.816 54.0091 177.962 54.0091H180.105Z" fill="#EDEDED"/>
<path d="M177.766 25.6833H175.623C167.769 25.6833 161.398 32.0237 161.398 39.844C161.398 47.6644 167.769 54.0047 175.623 54.0047H177.766C169.907 54.0047 163.541 47.6644 163.541 39.844C163.541 32.0237 169.912 25.6833 177.766 25.6833Z" fill="white"/>
<path d="M69.6193 26.4615H77.9948V53.8126H86.3748V26.6538H93.1955L95.5344 19.2806H69.6193V26.4615ZM138.209 26.4615H146.585V53.8126H154.965V26.6538H161.786L164.125 19.2806H138.209V26.4615ZM97.0936 23.3584C97.0936 21.1093 98.9247 19.285 101.183 19.285C103.442 19.285 105.278 21.1093 105.278 23.3584C105.278 25.6075 103.447 27.4318 101.183 27.4318C98.9247 27.4318 97.0936 25.6075 97.0936 23.3584ZM97.0936 30.3426H105.273V53.8171H97.0936V30.3426ZM108.784 19.285V53.8171H116.968V44.8923L119.503 42.5628L127.491 54.0094H136.258L124.76 37.3269L135.086 27.2395H125.147L116.963 35.3863V19.285H108.779H108.784ZM197.056 19.285V53.8171H205.24V44.8923L207.771 42.5628L215.763 54.0094H224.531L213.032 37.3269L223.359 27.2395H213.42L205.236 35.3863V19.285H197.052H197.056Z" fill="white"/>
<path d="M177.962 54.0091C185.816 54.0091 192.187 47.6688 192.187 39.8484C192.187 32.0281 185.816 25.6877 177.962 25.6877H177.766C169.912 25.6877 163.541 32.0281 163.541 39.8484C163.541 47.6688 169.912 54.0091 177.766 54.0091H177.962ZM170.945 39.8484C170.945 36.0433 174.046 32.9626 177.864 32.9626C181.682 32.9626 184.783 36.0433 184.783 39.8484C184.783 43.6535 181.687 46.7343 177.864 46.7343C174.042 46.7343 170.945 43.6491 170.945 39.8484Z" fill="white"/>
</svg>
