<svg width="222" height="51" viewBox="0 0 222 51" fill="none" xmlns="http://www.w3.org/2000/svg">
<path d="M69.9259 8.57393C69.1209 5.54878 66.7317 3.16321 63.6955 2.34352C58.2039 0.876892 36.1751 0.876892 36.1751 0.876892C36.1751 0.876892 14.1573 0.876892 8.65469 2.3472C5.62587 3.15219 3.2403 5.54143 2.42428 8.57393C0.953979 14.0655 0.953979 25.5302 0.953979 25.5302C0.953979 25.5302 0.953979 36.9949 2.42428 42.4828C3.22927 45.5079 5.61852 47.8935 8.65469 48.7132C14.1573 50.1835 36.1751 50.1835 36.1751 50.1835C36.1751 50.1835 58.2039 50.1835 63.6955 48.7132C66.7206 47.9082 69.1062 45.519 69.9259 42.4828C71.3962 36.9912 71.3962 25.5302 71.3962 25.5302C71.3962 25.5302 71.3962 14.0655 69.9259 8.5776V8.57393Z" fill="white"/>
<path d="M29.1361 14.9626V36.0982L47.4377 25.5304L29.1361 14.9626Z" fill="#1B1927"/>
<path d="M114.605 16.565C113.226 15.624 111.4 15.1535 109.113 15.1535C106.827 15.1535 104.923 15.624 103.5 16.5429C102.078 17.4618 101.027 18.9285 100.35 20.9465C99.6776 22.9645 99.3395 25.6331 99.3395 28.9596V33.4404C99.3395 36.7338 99.6409 39.3694 100.225 41.3543C100.81 43.3392 101.806 44.7948 103.195 45.7358C104.585 46.6768 106.511 47.1473 108.955 47.1326C111.341 47.1326 113.237 46.6621 114.627 45.7431C116.027 44.8242 117.038 43.3576 117.652 41.3616C118.27 39.3657 118.582 36.7228 118.582 33.4257V28.9449C118.582 25.6294 118.266 22.9608 117.63 20.9685C116.99 18.9763 115.983 17.506 114.605 16.565ZM111.591 35.9656C111.591 38.2409 111.389 39.884 111.006 40.8948C110.617 41.902 109.944 42.4055 108.955 42.4055C107.966 42.4055 107.308 41.902 106.937 40.8948C106.57 39.8987 106.39 38.2519 106.39 35.9656V26.3388C106.39 24.1186 106.592 22.494 106.974 21.4758C107.367 20.4539 108.029 19.9393 108.97 19.9393C109.911 19.9393 110.628 20.4539 111.01 21.4758C111.403 22.5087 111.594 24.1223 111.594 26.3388V35.9656H111.591Z" fill="#EBEBEB"/>
<path d="M134.075 40.2997C133.807 40.8694 133.392 41.3436 132.844 41.7112C132.296 42.0788 131.712 42.2589 131.105 42.2589C130.399 42.2589 129.896 41.9575 129.594 41.373C129.293 40.7886 129.146 39.8035 129.146 38.425V15.7567H122.199V38.8184C122.199 41.6781 122.68 43.7733 123.658 45.1149C124.632 46.4603 126.147 47.1329 128.198 47.1329C131.146 47.1329 133.362 45.7104 134.843 42.8507H134.99L135.597 46.6257H141.03V15.7567H134.079V40.296L134.075 40.2997Z" fill="#EBEBEB"/>
<path d="M94.2192 4.35737L91.3484 17.3548C90.5434 21.1556 90.0251 23.8573 89.7899 25.4672H89.5877C89.2496 23.2177 88.735 20.505 88.0292 17.3107L85.2614 4.36839H78.3583L86.2722 32.9327V46.6359H93.1164V32.9327L101.119 4.35737H94.2155H94.2192Z" fill="#EBEBEB"/>
<path d="M169.73 40.2997C169.461 40.8694 169.046 41.3436 168.498 41.7112C167.95 42.0788 167.366 42.2589 166.76 42.2589C166.054 42.2589 165.55 41.9575 165.249 41.373C164.947 40.7886 164.8 39.8035 164.8 38.425V15.7567H157.853V38.8184C157.853 41.6781 158.335 43.7733 159.312 45.1149C160.286 46.4603 161.801 47.1329 163.852 47.1329C166.8 47.1329 169.016 45.7104 170.498 42.8507H170.645L171.251 46.6257H176.684V15.7567H169.733V40.296L169.73 40.2997Z" fill="#EBEBEB"/>
<path d="M210.174 33.51H221.815V28.2206C221.815 24.9676 221.547 22.4129 221.032 20.5677C220.507 18.7188 219.61 17.3624 218.331 16.4876C217.051 15.6128 215.225 15.1754 212.839 15.1754C209.377 15.1754 206.932 16.2413 205.51 18.3696C204.087 20.5089 203.37 23.8832 203.37 28.522V33.9144C203.37 38.4172 204.054 41.7364 205.432 43.8867C206.807 46.0407 209.207 47.114 212.637 47.114C215.497 47.114 217.702 46.4083 219.261 44.9968C220.819 43.5853 221.602 41.457 221.602 38.5973C221.602 38.1268 221.587 37.7555 221.554 37.4872L215.559 37.138C215.526 39.02 215.313 40.3653 214.931 41.1703C214.552 41.9753 213.835 42.3796 212.791 42.3796C212.019 42.3796 211.446 42.1444 211.075 41.6959C210.707 41.2475 210.457 40.5197 210.347 39.5309C210.226 38.5348 210.167 37.0571 210.167 35.0722V33.5064L210.174 33.51ZM210.174 27.1694C210.174 25.1624 210.233 23.648 210.354 22.6629C210.476 21.6778 210.711 20.961 211.06 20.5236C211.409 20.0862 211.957 19.8619 212.696 19.873C213.438 19.873 213.986 20.0862 214.331 20.5015C214.681 20.9169 214.923 21.6447 215.059 22.6665C215.192 23.6884 215.261 25.1881 215.261 27.173V29.3895H210.174V27.1694Z" fill="#EBEBEB"/>
<path d="M197.647 16.4658C196.706 15.591 195.416 15.1536 193.77 15.1536C192.49 15.1536 191.303 15.5101 190.193 16.2379C189.083 16.9547 188.234 17.9067 187.627 19.0866H187.569V2.81773H180.868V46.6401H186.606L187.311 43.7179H187.458C187.995 44.7618 188.804 45.5778 189.881 46.1843C190.954 46.7908 192.145 47.0922 193.457 47.0922C195.81 47.0922 197.537 46.0079 198.644 43.8429C199.754 41.6778 200.301 38.2961 200.301 33.6904V28.8053C200.309 25.3538 200.099 22.6521 199.684 20.704C199.257 18.7558 198.585 17.3443 197.644 16.4695L197.647 16.4658ZM193.031 38.5865C192.851 39.8657 192.538 40.7699 192.101 41.3103C191.663 41.8506 191.079 42.1152 190.34 42.1152C189.767 42.1152 189.241 41.9792 188.748 41.7109C188.267 41.4426 187.863 41.0383 187.561 40.5016V22.9646C187.796 22.1228 188.201 21.4428 188.771 20.9025C189.344 20.3658 189.958 20.0975 190.63 20.0975C191.336 20.0975 191.884 20.3768 192.266 20.9245C192.645 21.4722 192.913 22.4132 193.071 23.7144C193.218 25.0267 193.295 26.8866 193.295 29.3052V33.2971H193.306C193.306 35.554 193.218 37.311 193.027 38.5902L193.031 38.5865Z" fill="#EBEBEB"/>
<path d="M159.909 4.37288H139.31V9.96371H146.213V46.6331H153.017V9.96371H159.909V4.37288Z" fill="#EBEBEB"/>
</svg>
